<svg xmlns="http://www.w3.org/2000/svg" width="300" height="300"><path d="M2.5181885 236.18609c-.4105284-.66874 9.7800945-10.56348 64.3299695-62.46161 27.802507-26.45102 53.403762-50.89578 56.891652-54.32172l6.34164-6.22894 13.68143-4.86621c92.58966-32.932311 125.96077-44.613383 127.45402-44.613383 3.23348 0 3.5021 1.384925 2.76946 14.276388-.93271 16.410677-4.37501 30.941755-9.97979 42.127805-1.06563 2.12669-1.84428 3.93487-1.73036 4.01813.11382.0832 2.19047.67803 4.61458 1.32169 4.00252 1.06282 7.08117 2.78402 7.08117 3.95892 0 .24981-.63636 1.85064-1.41413 3.55716-.77778 1.70654-1.41786 3.51533-1.42241 4.01952-.004.50422-.54988 1.05929-1.21184 1.23358-.66197.17402-1.20357.72822-1.20357 1.23097 0 .50284-.5547.91424-1.23259.91424-.67794 0-1.60041.44607-2.04988.99126-.69404.84184-.53294.99255 1.06846.99982 1.03718.004 6.48127-.63684 12.09796-1.42558 9.49215-1.33302 14.28986-1.31888 13.45581.0396-.19126.31149.23809.72066.95457.9092.71629.18857 1.50282.86877 1.74782 1.51155.24508.64282 1.01537 1.74235 1.71179 2.44337 1.0745 1.08163 1.20072 1.83989.83343 5.00686-1.09104 9.40708-4.50277 18.57343-10.42841 28.01837-3.02191 4.81665-4.39089 6.44327-5.42255 6.44327-.75903 0-2.33812.33614-3.50904.74706-1.81809.63804-2.55262.53406-5.03102-.71191-1.59615-.80243-3.32413-2.28051-3.83997-3.28458-2.37138-4.61617-20.12075-16.57602-24.60013-16.57602-.77405 0-1.51467 1.24007-2.46693 4.1303l-1.36079 4.1303-3.74686.20002c-2.52961.13481-5.11738-.25905-7.9656-1.21331l-4.21866-1.41321-6.06383 4.95686c-7.8472 6.41472-15.46567 11.19358-28.05635 17.59898-13.73271 6.98641-22.45529 10.66629-36.10716 15.23269-30.75801 10.2883-68.356945 17.31405-116.855905 21.83577-3.79125.3533-10.733674 1.39037-15.427604 2.30415-12.2488202 2.38477-19.3826316 3.45675-19.6883825 2.95881zm16.0714955-9.46695c4.148909-2.51748 11.170548-7.0699 15.603631-10.11649l8.060126-5.53927h5.582435c5.668169 0 21.619868-2.86302 35.273806-6.33092 19.875468-5.04809 62.133198-18.96437 74.937798-24.67842 12.18231-5.43635 35.17574-16.6761 35.17574-17.19473 0-.22735-1.55096-1.92871-3.44659-3.78076-3.22637-3.15216-4.09403-3.5829-13.57911-6.74184l-10.13254-3.37461-4.46556 1.47771c-2.76244.91408-4.61099 1.91871-4.84694 2.63414-.2372.71895-1.04772 1.15617-2.14253 1.15563-2.89474-.00098-14.31042-3.02703-23.54366-6.24001-4.75896-1.65606-9.09125-3.01102-9.62731-3.01102-1.00342 0-10.45357-6.90083-10.7991-7.88584-.10641-.30312 3.96618-4.52616 9.04999-9.38441 10.4182-9.95602 9.04302-9.39807 19.70085-7.99375 9.76496 1.28662 86.6217 10.72534 87.33346 10.72534.35014 0 .63671.41414.63671.92056 0 .50635.4673 1.10111 1.03845 1.3217.57116.22073 9.54948.40092 19.95189.40092h18.91346l.43153-1.7301c.23722-.95159.34313-1.81112.23547-1.91016-.10766-.0992-6.99078-2.02951-15.29544-4.28993-8.30464-2.26044-15.24706-4.26321-15.4276-4.45063-.34881-.36214 6.57283.3507 8.97931.92461 1.09292.26083 1.6632-.11368 2.42142-1.58955.54545-1.06189 3.09058-4.72107 5.65582-8.13152 7.82296-10.4006 10.47488-17.450004 10.79231-28.688251.16413-5.813221.32082-6.415073 2.90292-11.150932 1.50119-2.753359 2.72941-5.413355 2.72941-5.911156 0-.616621-20.65947 6.44172-64.82877 22.148853-35.6558 12.679656-66.15484 23.261416-67.77555 23.515056-2.20061.34452 8.60524 1.76794 42.67211 5.62165 25.09035 2.83821 46.68415 5.31961 47.98619 5.51412 1.99071.29738 2.42298.13922 2.71748-.99448.41448-1.59583-1.37186-1.94061 18.87724 3.64329 14.10328 3.88909 17.17776 4.96887 16.36856 5.74871-.15666.15069-8.65359.37889-18.88255.50666-17.78564.22248-18.63873.17666-19.5293-1.04837-.83058-1.14248-6.02013-1.90562-48.02212-7.06208-27.6604-3.39579-47.18694-6.07122-47.32366-6.48412-.95311-2.8783-3.79086-.36391-59.714679 52.91429-63.132305 60.14547-65.3359799 62.28324-63.5012538 61.60349.7221428-.26745 4.7075428-2.54623 8.8564958-5.06361zM183.37712 116.97009c-22.56623-2.61436-40.7347-4.92614-40.37437-5.1373 2.82646-1.65631 5.59504-1.87945 11.55004-.93096 5.98705.9536 20.78013 2.61401 29.47952 3.30887 4.75186.37977 12.06306 1.28931 18.43924 2.29451 9.39687 1.48136 21.4842 2.82001 24.7769 2.74402 3.02106-.0696 3.46806.0794 3.27657 1.09423-.16981.89893-.91437 1.19909-3.17004 1.27751-1.62157.0564-21.41159-2.03652-43.97786-4.65088zM36.26648 225.83937c.652206-.56586-4.965106-.1542-5.853737.42912-.67225.44117.05689.51329 2.297729.22731 1.805359-.2304 3.40554-.5258 3.556008-.65634zm24.673226-1.20372c45.239244-5.06492 81.224084-13.36165 107.892834-24.87595 19.57096-8.44987 41.97954-21.90262 55.57414-33.36336 3.6244-3.05549-4.75345 2.05906-10.09155 6.16074-1.61815 1.24335-5.02502 3.31652-7.57076 4.60707-2.54575 1.2905-7.18975 4.0799-10.32 6.19862-9.2651 6.27114-40.16836 20.3896-52.43819 23.9569-3.06911.89227-11.04551 2.86116-17.72534 4.3753-6.67981 1.51419-15.54248 3.62083-19.69481 4.68155-4.15233 1.06069-10.356194 2.23754-13.786367 2.61522-3.430186.37758-10.668029 1.41882-16.084107 2.31351-5.416066.89475-13.244758 1.93263-17.397085 2.30645-4.152325.37403-9.701364.87038-12.331185 1.10343-5.068175.44912-7.190796 1.55128-2.971028 1.54265 1.375311-.003 8.999879-.7328 16.943448-1.62213zm-14.874311-3.21735c.797329.2097 2.13593-.20706 3.267199-1.01815 2.732327-1.95846 5.230105-2.83063 5.737923-2.00352.230646.37581 1.257931.48771 2.320976.25289 1.627885-.35995 1.906978-.22073 1.906978.95259 0 1.75733.380771 1.73067 4.876876-.34143 2.303546-1.0616 4.303883-1.56869 5.247533-1.33025.838688.21191 2.459832-.0841 3.602484-.65803 1.461396-.73389 2.320398-.84047 2.896366-.35951.531849.44431 1.730866.47697 3.421691.0929 1.543372-.35026 2.844543-.34761 3.196466.009.326501.32864 1.065229.35641 1.6418.0616.576583-.29474 3.116246-1.07816 5.643749-1.74097 2.527505-.6628 5.628468-1.89757 6.89104-2.74394 2.261059-1.51578 3.492934-1.05806 2.00607.74539-.623801.75663-.297176.80346 1.992454.28549 1.50627-.34056 3.25489-.89752 3.88588-1.23746.63098-.34011 1.99596-.61904 3.0333-.62023 1.03735-.00099 2.77233-.12075 3.85556-.26522 1.0832-.14495 2.3379-.3018 2.78821-.34849.45027-.0467 1.96322-1.12605 3.36203-2.39818 2.5405-2.31042 4.17114-2.97324 3.86128-1.56952-.0901.40885.20526.87978.6565 1.04636.49018.18107.8206-.25156.8206-1.07389 0-.78322.42455-1.37675.98475-1.37675 1.19479 0 1.2972 2.04008.16413 3.26934-.67465.7319-.58708.80196.49236.39386.72215-.27314 2.08442-.73032 3.02727-1.01608.94282-.28593 3.08308-1.28887 4.75613-2.22912 2.4479-1.37571 3.36912-1.58427 4.71797-1.06803 1.91704.73368 4.99316-.32028 8.93895-3.0632 2.3025-1.60053 2.48608-1.6259 4.43132-.61331 1.11618.58097 2.02936.80174 2.02936.49057 0-.90779 5.42688-4.57536 8.58697-5.80325 2.60695-1.01296 6.68001-4.22345 5.39008-4.24859-.28535-.004-.0998-.27713.41184-.60328.60056-.38286 1.45654-.24672 2.41153.38329 1.38511.91356 1.45767.88858 1.12605-.38814-.39739-1.52981.98693-1.88658 2.27786-.58709.59203.59595 1.05609.51885 1.98834-.33043.66885-.60929 1.7138-1.10784 2.32216-1.10784.60835 0 1.61905-.26082 2.24603-.57974.62696-.31897 2.32164-.93449 3.76592-1.3681 5.29091-1.58845 6.10333-2.0574 5.7722-3.33202-.38733-1.49111 2.3401-3.4714 4.53129-3.29011 2.60424.21544 2.9625.0521 6.45055-2.94517 1.87176-1.60829 4.47488-3.17931 5.78476-3.49114 1.93613-.46092 2.38403-.87193 2.39476-2.19741.009-1.3132.39214-1.67389 1.96108-1.85345 1.07131-.12253 2.29789-.71739 2.72576-1.3217.42803-.60429 2.19579-1.84219 3.92867-2.75085 1.73287-.90867 4.4284-2.91602 5.99004-4.46074 1.56161-1.5447 3.12695-2.80859 3.47852-2.80859.35144 0 .63922-.41017.63922-.91109 0-.50111.89629-1.28482 1.9917-1.7416 1.09548-.45674 2.54125-1.53365 3.21286-2.3931.67157-.85964 1.54787-1.56282 1.94723-1.56282.39916 0 .72613-.27315.72613-.6068 0-.3335.17069-1.0544.37902-1.60146.44676-1.17184-1.06629-2.11563-4.40153-2.74547-2.32898-.43968-2.36175-.41501-2.76257 2.1082-.45521 2.86578-3.04425 5.67127-10.41794 11.28891-6.38542 4.86473-10.87496 7.3641-25.34764 14.11159-33.3722 15.5587-79.09074 30.32376-110.084285 35.55226-4.332856.73094-14.278919 2.19543-22.102316 3.25441-7.823384 1.05898-14.618099 2.27992-15.099354 2.71317-.481253.43308-2.027997 1.43454-3.437226 2.22495-1.409229.79047-2.534503 1.73456-2.500585 2.09803.08884.95312 2.853472 1.52206 4.500003.92615.773656-.2802 2.014474-.34892 2.757362-.15375zm47.849478-15.38015c-.218399-.21939-.78438-.24319-1.258282-.0521-.523705.21102-.368071.36742.396519.39914.692038.0309 1.079797-.12732.861674-.34718zm11.535687-2.61472c27.89066-7.04062 59.84987-18.36962 85.06182-30.153 19.53055-9.12803 32.92562-18.37016 33.85539-23.35903.53914-2.89307.29367-3.2409-1.896-2.68768-1.0521.26567-1.99671 1.21381-2.55875 2.56788-1.23228 2.9688-4.45488 5.64114-12.71979 10.54793-13.4158 7.96481-40.11117 20.84571-55.32913 26.69712-7.47995 2.8761-32.76767 11.11244-48.58054 15.82292-4.513394 1.34447-8.329245 2.55082-8.479709 2.68079-.695273.60049 2.023751.0599 10.646709-2.11693zm172.85946-23.25472c1.16515-1.54501 1.128-2.14774-.13216-2.14774-.57544 0-1.19361-.56729-1.3737-1.26059-.33481-1.28874-2.00113-2.01853-4.64553-2.03462-1.32506-.009-1.15113.34716 1.61284 3.29521 1.7039 1.81732 3.22596 3.30425 3.38229 3.30425.15624 0 .67676-.52045 1.1564-1.15651zm1.84982-11.47231c2.27043-3.54705 6.86094-14.26136 6.92019-16.15187.0132-.47393-2.11657-.41854-6.70726.17445-3.70101.47789-10.95215.90915-16.11373.95832l-9.38466.0895 5.42531 3.04051c5.93155 3.32428 15.4157 11.81654 16.05345 14.37451.21315.85394.57667 1.55.80832 1.54683.23153-.004 1.58094-1.8176 2.99838-4.03202zm-10.80877 1.03313c-.46348-.56217-1.60749-1.55925-2.54224-2.21573-1.43332-1.00662-1.99238-1.0701-3.56902-.40533l-1.86943.78825 2.19768 1.41633c1.20874.77898 3.19402 1.42132 4.41174 1.42744 1.92373.009 2.10348-.1229 1.37127-1.01096zm-33.45575-2.40844c0-.70637-.28361-.67728-2.26684.23217-1.94895.89391-2.14712 1.669-.52327 2.04692 1.09145.2542 2.79011-1.13367 2.79011-2.27932zm-1.31299-2.8475c1.50038-.86339 1.52526-.94648.28973-.96785-.74342-.0133-1.92511.41325-2.62598.94682-1.71836 1.3083.0713 1.3244 2.33638.022zm20.67955-3.98232c-3.12653-1.93846-3.10893-1.93713-6.79764-.51904-2.38456.91673-2.68143 1.20327-1.6632 1.60569.68165.26919 3.45507.5014 6.16311.51564l4.92371.0264-2.62598-1.62812zM240.49076 155.93c0-.49352.45589-1.07339 1.01307-1.28865.76875-.29695.85409-.69031.35362-1.63128-.36282-.68199-.51688-2.42916-.34268-3.88253.2232-1.86443.0218-2.88813-.68205-3.47667-.54918-.45877-.99849-1.32554-.99849-1.92612 0-.92153-1.61391-1.26765-10.33977-2.21754-5.6869-.61908-13.73714-1.0841-17.88946-1.03339-7.00304.0855-8.41219-.13085-19.46138-2.98831-6.55144-1.69428-12.52615-3.08053-13.27714-3.08053-.85165 0-1.74675.74227-2.37882 1.97264-.69541 1.35368-1.44127 1.92394-2.37704 1.81733-.78661-.0895-1.76837.44448-2.32014 1.2621-.88551 1.31217-.81291 1.52029.97804 2.80405 1.06406.76267 2.60379 1.46307 3.4217 1.55643 1.2002.13702 1.605-.27534 2.09815-2.13651.42148-1.59094.37464-2.68701-.15055-3.53382-.41885-.67513-.60175-1.3884-.40659-1.58504.1952-.19649 4.42556.85819 9.4005 2.34396 20.76521 6.20152 25.95965 7.05935 36.93632 6.09994 7.94117-.69413 8.11707-.67967 11.67553.96025l3.6129 1.66502-.35057 4.1256c-.19299 2.26908-.57333 4.68065-.84556 5.35898-.43837 1.0926-.33351 1.14654.91768.47238.7769-.41854 1.41253-1.16476 1.41253-1.65829zm-34.76156-.0643c3.58201-1.8646 2.74725-2.42056-5.43686-3.62093-2.7918-.40928-8.10875-1.61709-11.81549-2.68361-3.70673-1.06653-7.34572-1.93911-8.0867-1.93911-.74096 0-1.65314-.30796-2.02699-.68434-.46873-.47178-.64646-.22909-.57244.78224.12384 1.69405 3.67328 3.08057 17.40197 6.79787 4.5134 1.22213 8.29472 2.25217 8.40291 2.28906.10816.0352 1.06833-.38682 2.1336-.94118zm-6.84448-6.61655c-.55656-1.45999.88872-1.78412 4.41183-.98933 3.23051.72878 11.08502.18592 9.52768-.65864-.49-.26566-3.40204-.98458-6.47114-1.5975-3.06911-.61287-9.70084-2.27437-14.73714-3.69221-5.03632-1.41782-9.28536-2.44857-9.44232-2.29058-.15712.15816-.31992 1.40691-.36239 2.77535-.0757 2.44914-.0218 2.50676 3.53388 3.67968 3.89069 1.28394 12.44502 3.68392 13.36424 3.74943.30943.022.38821-.41721.17506-.9762zm62.89702-1.29667l2.43629-2.31297h-2.02926c-2.65262 0-7.83215 3.19173-6.52826 4.02285 1.76443 1.12471 3.70709.58208 6.12123-1.70988zm15.31819-.70254c2.20761-2.11972 2.2885-2.30895.81099-1.89681-.90268.25202-3.26606 1.29713-5.25195 2.3229l-3.61071 1.865 2.79971.0309c2.33512.0264 3.20673-.35907 5.25196-2.32284zm11.55762-1.1148c.59592-2.23847.51859-2.47818-.7993-2.47818-.89779 0-1.22766.51533-1.26909 1.98255-.0665 2.3538 1.47532 2.72326 2.06839.49563zm-50.4645-17.0168c-.22323-.36346-1.10944-.66084-1.96948-.66084-.86006 0-1.74632.29738-1.9695.66084-.24202.39387.55317.66084 1.9695.66084 1.4163 0 2.21142-.26697 1.96948-.66084zm6.27135-.33042c-.0517-.98088-1.52019-.80069-1.8609.22821-.18425.55586.11594.80359.80058.66085.60226-.12555 1.07939-.52569 1.06032-.88915zm4.94506.30179c-1.12835-.33968-2.34045-.3247-2.95422.0352-.74443.43837-.19958.60227 1.91347.57599 2.72733-.0352 2.8073-.0811 1.04075-.61269zm-1.69727-2.24533c-1.62481-.45887-5.12169-1.4575-7.77081-2.21923-3.89924-1.1212-4.74716-1.20274-4.45194-.42823.28578.7501-.29238.95661-2.67838.95661-5.04743 0-2.57183.85129 3.24238 1.11496 2.98214.13526 6.89918.49948 8.70455.80942 4.85407.83337 6.32133.71743 2.9542-.2335zm-21.18557-.10801c-.21796-.2194-.78438-.24319-1.25833-.0521-.52366.21104-.36806.36743.39653.39916.69203.0309 1.07979-.12732.86167-.34717zm-12.9521-2.20361c0-1.01493-.62419-1.37542-3.00359-1.7346-1.92768-.29121-3.26806-.18723-3.74202.2899-.40614.40882-2.08256.78055-3.72546.82606l-2.98706.0828 2.95423.5015c1.62483.2758 3.2349.23878 3.57789-.0828.34313-.32117 1.63473-.58419 2.87051-.58419 1.92273 0 2.12891.14319 1.42953.99127-.69111.83827-.55154.99127.90433.99127 1.26586 0 1.72164-.33923 1.72164-1.2812zm12.47338.3758c0-.9966-5.40399-1.89786-7.17823-1.19724-.82277.32514 2.92508 1.46197 6.68586 2.02841.27092.0396.49237-.33306.49237-.83117zm-30.19871-1.73807c0-.36346-1.40327-.6217-3.11834-.57385-3.04574.0851-3.06487.0983-.82062.57385 3.42168.72503 3.93896.72503 3.93896 0zm62.42587-2.75424c1.03954-1.95532.15538-1.39012-1.46573.9369-1.06155 1.52387-1.15946 1.87558-.33701 1.21084.63751-.51533 1.44876-1.48178 1.80283-2.14774zm-72.60152 1.43254c-.22321-.36346-2.08699-.61618-4.14183-.56159l-3.7361.0992 2.95422.46233c4.56102.7138 5.36194.7138 4.92371 0zm15.91997.18767c-.99297-.15155-2.61775-.15155-3.61071 0-.99293.15157-.18033.27536 1.80534.27536 1.9859 0 2.79831-.12378 1.80537-.27536zm55.81563-4.11628c2.848-4.60722 7.65416-14.51113 7.24289-14.92514-.12386-.12466-1.32245 1.9103-2.66335 4.52237-1.34092 2.61211-3.84609 6.49988-5.56712 8.63958-5.26443 6.54499-5.16412 6.35687-3.37338 6.32586 1.20305-.022 2.19488-1.0585 4.36096-4.56267zm-65.17066 3.26793c1.26589-.54758 1.26138-.56959-.12523-.61442-.79107-.0263-1.62092.25113-1.84409.61442-.4799.78166.16237.78166 1.96948 0zm-16.24823-.45553c-.63185-.16611-1.66588-.16611-2.29773 0-.63184.16609-.11506.30222 1.14888.30222 1.26373 0 1.7807-.13613 1.14885-.30222zm-6.40082-.86616c-.54161-.35245-2.16642-.60997-3.61071-.57256-2.5296.0657-2.55366.0868-.6565.57256 1.08322.27755 2.70804.53512 3.61071.57255 1.28832.0533 1.42945-.0696.6565-.57255zm-8.69089-1.11489c-.62764-.16566-1.80933-.17139-2.62596-.0133-.81664.15815-.3033.29341 1.14119.3009 1.4443.009 2.11243-.12202 1.48477-.28725zm-6.88836-.64027c-.44444-.18109-1.3307-.1921-1.96948-.0264-.63872.16742-.27485.31545.80815.32909 1.08321.0133 1.60582-.12377 1.16133-.30442zm109.2141-4.46051c1.12986-1.28818 3.70731-8.79735 4.4445-12.94893.22583-1.27212-.41184-.0823-1.41693 2.64339-1.00523 2.726-3.08171 7.33541-4.61445 10.24315-1.96865 3.73468-2.30692 4.70476-1.15228 3.30425.89901-1.0904 2.13164-2.54925 2.73916-3.24186zM159.1918 117.1809c-.96767-.39035-1.93815-.38241-2.62599.022-.83189.48876-.46737.63584 1.53499.61918 2.29675-.0177 2.43353-.0995 1.091-.64099zm3.99681.26522c-.45135-.18328-1.18987-.18328-1.64123 0-.45135.18327-.0818.3335.82062.3335.90268 0 1.27198-.14979.82061-.3335zm-14.27871-.85863l3.93895-.49192-3.93895-.059c-2.16644-.0309-5.12067.1868-6.56495.48767l-2.62598.54677 2.62598.004c1.44428.003 4.39851-.2172 6.56495-.4877zm120.41019-25.633278c-.0559-2.462325-.06-2.465846-.62858-.552245-.52011 1.750669-.35319 3.030421.39566 3.030421.15929 0 .2639-1.115149.23327-2.478176zm1.16138-16.810306c-.20963-.527181-.36501-.370514-.39653.399166-.0307.696612.12648 1.086958.34488.86737.21796-.219411.24158-.789582.0517-1.266625zM100.00735 131.94533c-3.84211-1.83182-30.162177-9.35876-32.956867-9.42489-.249908-.004-.282294 2.05476-.07178 4.57928.378575 4.54804.366327 4.59408-1.363936 5.03127-2.688558.67925-5.166172-.74028-9.891568-5.66744-4.935249-5.14594-6.780741-8.76448-7.293468-14.30068-.513465-5.54433.256909-7.66965 3.034974-8.37315 1.239546-.31368 3.287677-.98652 4.551429-1.49471 1.263752-.50824 7.43102-1.65198 13.705008-2.541709 10.584559-1.500963 11.5907-1.543736 13.950486-.593268 1.622991.653671 2.543215 1.451047 2.543215 2.203577 0 1.69402 1.262623 1.98073 8.752254 1.98747 7.252023.009 18.923513 1.25117 30.309123 3.23216 3.97181.69108 7.51766 1.01332 7.87965.71606.56077-.46043 6.71969.27843 7.3149.8777.11156.11229-1.82234.86109-4.29787 1.66371l-4.50102 1.45924-8.12153-1.34478c-10.22212-1.69265-32.274727-3.0589-32.618469-2.02085-.13129.39651-.677494 1.16279-1.213723 1.70253-1.25508 1.26342-1.770642 1.10173 12.580782 3.94567 6.4993 1.2879 13.85145 2.86737 16.33813 3.50989l4.52122 1.1683-8.42627 8.07213c-4.63446 4.43965-8.73693 8.04621-9.11669 8.01458-.37988-.0309-2.90327-1.11255-5.60786-2.40209zm-17.74652-26.90442c-1.475926-1.45967-1.899498-1.55123-4.580528-.99021-1.624822.34013-4.726751.79606-6.893185 1.0134-7.462063.74865-5.373841 1.58523 3.956865 1.58523h9.143164l-1.626316-1.60842z"/></svg>