<?xml version="1.0" encoding="UTF-8" standalone="no"?>
<!-- Created with Inkscape (http://www.inkscape.org/) -->

<svg
   xmlns:dc="http://purl.org/dc/elements/1.1/"
   xmlns:cc="http://creativecommons.org/ns#"
   xmlns:rdf="http://www.w3.org/1999/02/22-rdf-syntax-ns#"
   xmlns:svg="http://www.w3.org/2000/svg"
   xmlns="http://www.w3.org/2000/svg"
   xmlns:sodipodi="http://sodipodi.sourceforge.net/DTD/sodipodi-0.dtd"
   xmlns:inkscape="http://www.inkscape.org/namespaces/inkscape"
   width="134.33501"
   height="134.33501"
   viewBox="0 0 134.33501 134.33501"
   id="svg4210"
   version="1.1"
   inkscape:version="0.91 r13725"
   sodipodi:docname="threeheartsDarkmode.svg">
  <defs
     id="defs4212" />
  <sodipodi:namedview
     id="base"
     pagecolor="#ffffff"
     bordercolor="#666666"
     borderopacity="1.0"
     inkscape:pageopacity="0.0"
     inkscape:pageshadow="2"
     inkscape:zoom="4"
     inkscape:cx="27.861704"
     inkscape:cy="47.42176"
     inkscape:document-units="px"
     inkscape:current-layer="layer1"
     showgrid="false"
     units="px"
     showguides="true"
     inkscape:guide-bbox="true"
     inkscape:window-width="1920"
     inkscape:window-height="1017"
     inkscape:window-x="1592"
     inkscape:window-y="-8"
     inkscape:window-maximized="1" />
  <metadata
     id="metadata4215">
    <rdf:RDF>
      <cc:Work
         rdf:about="">
        <dc:format>image/svg+xml</dc:format>
        <dc:type
           rdf:resource="http://purl.org/dc/dcmitype/StillImage" />
        <dc:title></dc:title>
      </cc:Work>
    </rdf:RDF>
  </metadata>
  <g
     inkscape:label="Layer 1"
     inkscape:groupmode="layer"
     id="layer1"
     transform="translate(0,-918.02717)">
    <path
       inkscape:connector-curvature="0"
       style="font-style:normal;font-variant:normal;font-weight:normal;font-stretch:normal;font-size:medium;line-height:125%;font-family:'Segoe UI Symbol';-inkscape-font-specification:'Segoe UI Symbol';letter-spacing:0px;word-spacing:0px;display:inline;fill:#d8d8d8;fill-opacity:1;stroke:#d8d8d8;stroke-width:6.5;stroke-linecap:butt;stroke-linejoin:miter;stroke-miterlimit:4;stroke-dasharray:none;stroke-opacity:1"
       d="m 78.283484,924.47807 c 1.5506,0 3.04863,0.28909 4.4941,0.86728 1.47175,0.55191 2.75953,1.40605 3.86334,2.56242 1.13009,1.13009 2.02365,2.56242 2.68069,4.29698 0.68332,1.73456 1.02497,3.7845 1.02497,6.14981 0,2.62813 -0.42049,5.08542 -1.2615,7.37189 -0.841,2.26019 -1.94481,4.38897 -3.31144,6.38634 -1.36662,1.99737 -2.91722,3.87648 -4.65178,5.63732 -1.70827,1.73456 -3.44284,3.40342 -5.20368,5.00658 -1.76085,1.57687 -3.46913,3.10118 -5.12484,4.57293 -1.62944,1.44547 -3.03549,2.86465 -4.218142,4.25756 l -0.35482,0 c -1.18265,-1.39291 -2.58869,-2.81209 -4.21814,-4.25756 -1.62942,-1.47175 -3.32456,-2.99606 -5.08542,-4.57293 -1.76084,-1.60316 -3.50855,-3.27202 -5.24311,-5.00658 -1.70827,-1.76084 -3.24572,-3.63995 -4.61236,-5.63732 -1.36662,-1.99737 -2.47043,-4.12615 -3.31143,-6.38634 -0.841,-2.28647 -1.2615,-4.74376 -1.2615,-7.37189 0,-2.36531 0.32852,-4.41525 0.98554,-6.14981 0.68332,-1.73456 1.57688,-3.16689 2.6807,-4.29698 1.13009,-1.15637 2.41787,-2.01051 3.86334,-2.56242 1.47176,-0.57819 2.98292,-0.86728 4.5335,-0.86728 1.49804,0 2.83838,0.19711 4.02103,0.59133 1.20895,0.39421 2.28648,0.93298 3.2326,1.61629 0.9724,0.65703 1.8134,1.41919 2.52299,2.28647 0.73588,0.841 1.36663,1.70828 1.89225,2.60184 l 0.35481,0 c 0.52563,-0.89356 1.156382,-1.76084 1.892252,-2.60184 0.73588,-0.86728 1.57688,-1.62944 2.523,-2.28647 0.97242,-0.68331 2.04995,-1.22208 3.2326,-1.61629 1.20894,-0.39422 2.56242,-0.59133 4.06045,-0.59133 z"
       id="path4790" />
    <path
       inkscape:connector-curvature="0"
       style="font-style:normal;font-variant:normal;font-weight:normal;font-stretch:normal;font-size:medium;line-height:125%;font-family:'Segoe UI Symbol';-inkscape-font-specification:'Segoe UI Symbol';letter-spacing:0px;word-spacing:0px;display:inline;fill:#26272a;fill-opacity:1;stroke:#d8d8d8;stroke-width:6.5;stroke-linecap:butt;stroke-linejoin:miter;stroke-miterlimit:4;stroke-dasharray:none;stroke-opacity:1"
       d="m 47.455572,938.35456 c 0,2.1025 0.34166,4.08673 1.02497,5.9527 0.68332,1.86597 1.57689,3.62681 2.6807,5.28253 1.10381,1.65572 2.33902,3.21945 3.70564,4.6912 1.39291,1.44547 2.79896,2.82523 4.21815,4.13929 1.41919,1.28778 2.77267,2.50986 4.06045,3.66624 1.31406,1.13009 2.43102,2.19448 3.35087,3.19317 0.91984,-0.99869 2.023642,-2.06308 3.311422,-3.19317 1.28779,-1.15638 2.62813,-2.37846 4.02103,-3.66624 1.41919,-1.31406 2.8121,-2.69382 4.17872,-4.13929 1.36663,-1.47175 2.58871,-3.03548 3.66623,-4.6912 1.10382,-1.65572 1.99738,-3.41656 2.68069,-5.28253 0.68332,-1.86597 1.02497,-3.8502 1.02497,-5.9527 0,-1.60315 -0.18396,-2.98292 -0.55189,-4.13929 -0.36794,-1.15638 -0.86728,-2.10251 -1.49803,-2.83838 -0.63075,-0.73587 -1.37976,-1.27464 -2.24705,-1.61629 -0.86728,-0.34166 -1.80026,-0.51249 -2.79895,-0.51249 -1.52431,0 -2.89093,0.30224 -4.09987,0.90671 -1.18266,0.60447 -2.26018,1.40604 -3.23259,2.40473 -0.94613,0.97241 -1.80027,2.07622 -2.56243,3.31143 -0.73588,1.23522 -1.392902,2.47044 -1.971092,3.70566 -0.60447,-1.23522 -1.27464,-2.47044 -2.01053,-3.70566 -0.73587,-1.23521 -1.59001,-2.33902 -2.56241,-3.31143 -0.94612,-0.99869 -2.02365,-1.80026 -3.23259,-2.40473 -1.20894,-0.60447 -2.56242,-0.90671 -4.06046,-0.90671 -0.99868,0 -1.93166,0.17083 -2.79895,0.51249 -0.86728,0.34165 -1.61629,0.88042 -2.24704,1.61629 -0.63075,0.73587 -1.13009,1.682 -1.49804,2.83838 -0.36794,1.15637 -0.55192,2.53614 -0.55192,4.13929 z"
       id="path4403" />
    <path
       d="m 78.483484,924.47807 c 1.5506,0 3.04863,0.28909 4.4941,0.86728 1.47175,0.55191 2.75953,1.40605 3.86334,2.56242 1.13009,1.13009 2.02366,2.56242 2.6807,4.29698 0.68331,1.73456 1.02497,3.7845 1.02497,6.14981 0,2.62813 -0.4205,5.08542 -1.26151,7.37189 -0.841,2.26019 -1.94481,4.38897 -3.31144,6.38634 -1.36662,1.99737 -2.91722,3.87648 -4.65177,5.63732 -1.70828,1.73456 -3.44285,3.40342 -5.20368,5.00658 -1.76086,1.57687 -3.46914,3.10118 -5.12485,4.57293 -1.62944,1.44547 -3.03549,2.86466 -4.218142,4.25756 l -0.3548,0 c -1.18267,-1.3929 -2.58871,-2.81209 -4.21816,-4.25756 -1.62942,-1.47175 -3.32456,-2.99606 -5.08542,-4.57293 -1.76084,-1.60316 -3.50855,-3.27202 -5.24311,-5.00658 -1.70827,-1.76084 -3.24572,-3.63995 -4.61236,-5.63732 -1.36662,-1.99737 -2.47043,-4.12615 -3.31142,-6.38634 -0.84101,-2.28647 -1.26151,-4.74376 -1.26151,-7.37189 0,-2.36531 0.32852,-4.41525 0.98555,-6.14981 0.68331,-1.73456 1.57688,-3.16689 2.6807,-4.29698 1.13008,-1.15637 2.41786,-2.01051 3.86333,-2.56242 1.47176,-0.57819 2.98292,-0.86728 4.53351,-0.86728 1.49803,0 2.83837,0.19711 4.02102,0.59133 1.20894,0.39421 2.28648,0.93298 3.2326,1.61629 0.9724,0.65703 1.8134,1.41919 2.52299,2.28647 0.73588,0.841 1.36663,1.70828 1.89226,2.60184 l 0.3548,0 c 0.52563,-0.89356 1.156382,-1.76084 1.892252,-2.60184 0.73588,-0.86728 1.57688,-1.62944 2.523,-2.28647 0.97242,-0.68331 2.04995,-1.22208 3.2326,-1.61629 1.20894,-0.39422 2.56242,-0.59133 4.06045,-0.59133 z m -30.827912,13.87649 c 0,2.1025 0.34166,4.08673 1.02497,5.9527 0.68332,1.86597 1.57689,3.62681 2.6807,5.28253 1.10381,1.65572 2.33902,3.21945 3.70565,4.6912 1.3929,1.44547 2.79895,2.82523 4.21814,4.13929 1.41919,1.28778 2.77267,2.50986 4.06045,3.66624 1.31406,1.13009 2.43102,2.19448 3.35088,3.19317 0.919832,-0.99869 2.023632,-2.06308 3.311412,-3.19317 1.28778,-1.15638 2.62813,-2.37846 4.02103,-3.66624 1.41919,-1.31406 2.8121,-2.69382 4.17872,-4.13929 1.36663,-1.47175 2.58871,-3.03548 3.66623,-4.6912 1.10382,-1.65572 1.99738,-3.41656 2.6807,-5.28253 0.68331,-1.86597 1.02497,-3.8502 1.02497,-5.9527 0,-1.60315 -0.18397,-2.98292 -0.5519,-4.13929 -0.36794,-1.15638 -0.86728,-2.10251 -1.49802,-2.83838 -0.63076,-0.73587 -1.37977,-1.27464 -2.24705,-1.61629 -0.86728,-0.34166 -1.80027,-0.51249 -2.79895,-0.51249 -1.52432,0 -2.89094,0.30224 -4.09987,0.90671 -1.18267,0.60447 -2.2602,1.40604 -3.2326,2.40473 -0.94613,0.97241 -1.80027,2.07622 -2.56243,3.31143 -0.73587,1.23522 -1.392912,2.47044 -1.971092,3.70566 -0.60447,-1.23522 -1.27465,-2.47044 -2.01052,-3.70566 -0.73588,-1.23521 -1.59002,-2.33902 -2.56241,-3.31143 -0.94613,-0.99869 -2.02366,-1.80026 -3.2326,-2.40473 -1.20893,-0.60447 -2.56242,-0.90671 -4.06045,-0.90671 -0.99869,0 -1.93167,0.17083 -2.79895,0.51249 -0.86728,0.34165 -1.6163,0.88042 -2.24705,1.61629 -0.63075,0.73587 -1.13009,1.682 -1.49804,2.83838 -0.36794,1.15637 -0.55192,2.53614 -0.55192,4.13929 z"
       style="font-style:normal;font-variant:normal;font-weight:normal;font-stretch:normal;font-size:medium;line-height:125%;font-family:'Segoe UI Symbol';-inkscape-font-specification:'Segoe UI Symbol';letter-spacing:0px;word-spacing:0px;display:inline;fill:none;fill-opacity:1;stroke:#000000;stroke-width:2.5;stroke-linecap:butt;stroke-linejoin:miter;stroke-miterlimit:4;stroke-dasharray:none;stroke-opacity:1"
       id="path4216"
       inkscape:connector-curvature="0"
       sodipodi:nodetypes="scccscsccccccccscscccsccccccccssssccccccccsscsssccccscssssss" />
    <path
       inkscape:connector-curvature="0"
       style="font-style:normal;font-variant:normal;font-weight:normal;font-stretch:normal;font-size:medium;line-height:125%;font-family:'Segoe UI Symbol';-inkscape-font-specification:'Segoe UI Symbol';letter-spacing:0px;word-spacing:0px;display:inline;fill:#ffded3;fill-opacity:1;stroke:#ffded3;stroke-width:6.5;stroke-linecap:butt;stroke-linejoin:miter;stroke-miterlimit:4;stroke-dasharray:none;stroke-opacity:1"
       d="m 106.65453,1035.5268 c -0.31329,-0.3154 -0.96168,-0.9436 -1.44084,-1.3962 -5.12068,-4.8362 -8.73757,-8.4848 -10.19978,-10.2893 -2.01934,-2.492 -3.7303,-5.187 -4.74392,-7.4723 -1.16102,-2.6176 -1.70594,-4.7895 -1.84409,-7.3499 -0.12502,-2.317 0.10834,-4.2541 0.71267,-5.9154 0.74395,-2.0451 1.94618,-3.22151 3.81116,-3.72926 0.82474,-0.22454 2.43001,-0.22995 3.38431,-0.0114 1.82778,0.41858 3.3379,1.35736 4.93209,3.06586 1.77482,1.9022 1.049,3.5353 4.81818,6.5694 l 1.09503,2.3309 0.1313,-0.2748 c 0.0722,-0.1512 0.46519,-1.0245 0.87328,-1.9409 1.45442,-3.2658 2.37057,-3.6053 3.62237,-5.2654 1.98053,-2.6265 4.12456,-4.13541 6.47043,-4.55361 0.26083,-0.0465 0.9266,-0.084 1.47948,-0.0834 1.14242,10e-4 1.84427,0.14735 2.68065,0.55763 2.06336,1.01218 3.25903,3.48428 3.4467,7.12608 0.23486,4.5576 -0.94608,8.5697 -3.89243,13.2243 -2.28339,3.6073 -4.46988,6.0676 -10.64785,11.9813 -1.34403,1.2866 -2.80706,2.7143 -3.25117,3.1727 -0.4441,0.4584 -0.82108,0.832 -0.8377,0.8302 -0.0167,-0 -0.28657,-0.2612 -0.59987,-0.5766 z"
       id="path4796" />
    <path
       inkscape:connector-curvature="0"
       style="font-style:normal;font-variant:normal;font-weight:normal;font-stretch:normal;font-size:medium;line-height:125%;font-family:'Segoe UI Symbol';-inkscape-font-specification:'Segoe UI Symbol';letter-spacing:0px;word-spacing:0px;display:inline;fill:#d8d8d8;fill-opacity:1;stroke:#d8d8d8;stroke-width:6.5;stroke-linecap:butt;stroke-linejoin:miter;stroke-miterlimit:4;stroke-dasharray:none;stroke-opacity:1"
       d="m 119.02189,994.90107 c 1.55059,0 3.04862,0.28909 4.49409,0.86728 1.47175,0.55191 2.75953,1.40605 3.86334,2.56242 1.13009,1.13009 2.02366,2.56243 2.68069,4.29693 0.68331,1.7346 1.02497,3.7845 1.02497,6.1499 0,2.6281 -0.4205,5.0854 -1.2615,7.3718 -0.841,2.2602 -1.94481,4.389 -3.31144,6.3864 -1.36662,1.9974 -2.91721,3.8765 -4.65178,5.6373 -1.70828,1.7346 -3.44284,3.4034 -5.20368,5.0066 -1.76086,1.5769 -3.46914,3.1012 -5.12485,4.5729 -1.62944,1.4455 -3.03549,2.8647 -4.21813,4.2576 l -0.3548,0 c -1.18265,-1.3929 -2.5887,-2.8121 -4.21814,-4.2576 -1.62943,-1.4717 -3.32457,-2.996 -5.08541,-4.5729 -1.76085,-1.6032 -3.50855,-3.272 -5.24311,-5.0066 -1.70828,-1.7608 -3.24573,-3.6399 -4.61236,-5.6373 -1.36663,-1.9974 -2.47044,-4.1262 -3.31144,-6.3864 -0.841,-2.2864 -1.2615,-4.7437 -1.2615,-7.3718 0,-2.3654 0.32851,-4.4153 0.98554,-6.1499 0.68331,-1.7345 1.57688,-3.16684 2.68069,-4.29693 1.1301,-1.15637 2.41788,-2.01051 3.86335,-2.56242 1.47175,-0.57819 2.98292,-0.86728 4.53351,-0.86728 1.49803,0 2.83838,0.19711 4.02103,0.59133 1.20894,0.39421 2.28647,0.93298 3.2326,1.61629 0.9724,0.65703 1.8134,1.41919 2.52299,2.28647 0.73588,0.84104 1.36663,1.70824 1.89225,2.60184 l 0.3548,0 c 0.52563,-0.8936 1.15638,-1.7608 1.89225,-2.60184 0.73587,-0.86728 1.57687,-1.62944 2.523,-2.28647 0.97241,-0.68331 2.04994,-1.22208 3.23259,-1.61629 1.20893,-0.39422 2.56243,-0.59133 4.06045,-0.59133 z"
       id="path4794" />
    <path
       inkscape:connector-curvature="0"
       style="font-style:normal;font-variant:normal;font-weight:normal;font-stretch:normal;font-size:medium;line-height:125%;font-family:'Segoe UI Symbol';-inkscape-font-specification:'Segoe UI Symbol';letter-spacing:0px;word-spacing:0px;display:inline;fill:#d8d8d8;fill-opacity:1;stroke:#d8d8d8;stroke-width:6.5;stroke-linecap:butt;stroke-linejoin:miter;stroke-miterlimit:4;stroke-dasharray:none;stroke-opacity:1"
       d="m 88.19399,1008.7776 c 0,2.1025 0.34166,4.0867 1.02497,5.9527 0.68331,1.8659 1.57688,3.6268 2.68069,5.2825 1.10381,1.6557 2.33902,3.2194 3.70565,4.6912 1.39291,1.4455 2.79895,2.8252 4.21814,4.1393 1.41919,1.2878 2.77267,2.5098 4.06045,3.6662 1.31406,1.1301 2.43101,2.1945 3.35086,3.1932 0.91984,-0.9987 2.02365,-2.0631 3.31143,-3.1932 1.28778,-1.1564 2.62812,-2.3784 4.02103,-3.6662 1.41919,-1.3141 2.8121,-2.6938 4.17873,-4.1393 1.36662,-1.4718 2.5887,-3.0355 3.66623,-4.6912 1.10381,-1.6557 1.99738,-3.4166 2.68069,-5.2825 0.68331,-1.866 1.02496,-3.8502 1.02496,-5.9527 0,-1.6032 -0.18397,-2.983 -0.5519,-4.1393 -0.36794,-1.1564 -0.86728,-2.1025 -1.49803,-2.8384 -0.63075,-0.7359 -1.37977,-1.2746 -2.24705,-1.6163 -0.86728,-0.34166 -1.80026,-0.51249 -2.79895,-0.51249 -1.52431,0 -2.89095,0.30224 -4.09988,0.90669 -1.18266,0.6045 -2.26019,1.4061 -3.23259,2.4047 -0.94613,0.9725 -1.80027,2.0763 -2.56243,3.3115 -0.73587,1.2352 -1.3929,2.4704 -1.97109,3.7056 -0.60447,-1.2352 -1.27464,-2.4704 -2.01051,-3.7056 -0.73587,-1.2352 -1.59001,-2.339 -2.56242,-3.3115 -0.94613,-0.9986 -2.02366,-1.8002 -3.23259,-2.4047 -1.20894,-0.60445 -2.56243,-0.90669 -4.06046,-0.90669 -0.99869,0 -1.93167,0.17083 -2.79895,0.51249 -0.86728,0.3416 -1.61629,0.8804 -2.24704,1.6163 -0.63075,0.7359 -1.1301,1.682 -1.49803,2.8384 -0.36794,1.1563 -0.55191,2.5361 -0.55191,4.1393 z"
       id="path4792" />
    <g
       style="display:inline"
       id="g4224"
       transform="translate(-397.15514,179.30144)">
      <path
         d="m 516.17692,815.59964 q 2.32589,0 4.49409,0.86728 2.20762,0.82786 3.86334,2.56242 1.69514,1.69514 2.68069,4.29698 1.02497,2.60184 1.02497,6.14981 0,3.94219 -1.2615,7.37189 -1.2615,3.39028 -3.31144,6.38634 -2.04993,2.99606 -4.65178,5.63732 -2.56242,2.60184 -5.20368,5.00658 -2.64127,2.36531 -5.12484,4.57293 -2.44416,2.1682 -4.21814,4.25756 l -0.3548,0 q -1.77398,-2.08936 -4.21814,-4.25756 -2.44415,-2.20762 -5.08541,-4.57293 -2.64127,-2.40474 -5.24311,-5.00658 -2.56242,-2.64126 -4.61236,-5.63732 -2.04993,-2.99606 -3.31143,-6.38634 -1.2615,-3.4297 -1.2615,-7.37189 0,-3.54797 0.98554,-6.14981 1.02497,-2.60184 2.68069,-4.29698 1.69514,-1.73456 3.86334,-2.56242 2.20763,-0.86728 4.53351,-0.86728 2.24705,0 4.02103,0.59133 1.81341,0.59132 3.2326,1.61629 1.4586,0.98555 2.52299,2.28647 1.10382,1.2615 1.89225,2.60184 l 0.3548,0 q 0.78844,-1.34034 1.89225,-2.60184 1.10381,-1.30092 2.523,-2.28647 1.45861,-1.02497 3.23259,-1.61629 1.8134,-0.59133 4.06045,-0.59133 z m -30.82789,13.87649 q 0,3.15375 1.02497,5.9527 1.02497,2.79895 2.68069,5.28253 1.65571,2.48358 3.70565,4.6912 2.08936,2.1682 4.21814,4.13929 2.12878,1.93167 4.06045,3.66624 1.97109,1.69514 3.35086,3.19317 1.37976,-1.49803 3.31143,-3.19317 1.93167,-1.73457 4.02103,-3.66624 2.12878,-1.97109 4.17872,-4.13929 2.04993,-2.20762 3.66623,-4.6912 1.65572,-2.48358 2.68069,-5.28253 1.02496,-2.79895 1.02496,-5.9527 0,-2.40473 -0.5519,-4.13929 -0.55191,-1.73457 -1.49803,-2.83838 -0.94613,-1.10381 -2.24705,-1.61629 -1.30092,-0.51249 -2.79895,-0.51249 -2.28647,0 -4.09987,0.90671 -1.77399,0.9067 -3.23259,2.40473 -1.41919,1.45861 -2.56243,3.31143 -1.10381,1.85283 -1.97109,3.70566 -0.9067,-1.85283 -2.01051,-3.70566 -1.10381,-1.85282 -2.56242,-3.31143 -1.41919,-1.49803 -3.23259,-2.40473 -1.81341,-0.90671 -4.06046,-0.90671 -1.49803,0 -2.79895,0.51249 -1.30092,0.51248 -2.24704,1.61629 -0.94613,1.10381 -1.49803,2.83838 -0.55191,1.73456 -0.55191,4.13929 z"
         style="font-style:normal;font-variant:normal;font-weight:normal;font-stretch:normal;font-size:medium;line-height:125%;font-family:'Segoe UI Symbol';-inkscape-font-specification:'Segoe UI Symbol';letter-spacing:0px;word-spacing:0px;fill:none;fill-opacity:1;stroke:#000000;stroke-width:2.5;stroke-linecap:butt;stroke-linejoin:miter;stroke-miterlimit:4;stroke-dasharray:none;stroke-opacity:1"
         id="path4207"
         inkscape:connector-curvature="0" />
      <path
         sodipodi:nodetypes="csssssssssccsssccssssccc"
         inkscape:connector-curvature="0"
         id="path4220"
         d="m 503.80957,856.22534 c -0.31329,-0.31534 -0.96168,-0.94359 -1.44084,-1.39614 -5.12068,-4.8362 -8.73757,-8.48482 -10.19978,-10.28931 -2.01934,-2.49202 -3.7303,-5.18701 -4.74392,-7.47231 -1.16102,-2.61761 -1.70594,-4.78947 -1.84409,-7.34988 -0.12502,-2.31704 0.10834,-4.25411 0.71267,-5.91541 0.74395,-2.04512 1.94618,-3.22153 3.81116,-3.72928 0.82474,-0.22454 2.43001,-0.22995 3.38431,-0.0114 1.82778,0.41858 3.3379,1.35731 4.93209,3.06586 1.77482,1.90215 2.76068,2.18997 4.81818,6.56944 l 1.09503,2.33082 0.1313,-0.27478 c 0.0722,-0.15114 0.46519,-1.02453 0.87328,-1.94088 1.45442,-3.26581 2.37057,-3.60528 3.62237,-5.26538 1.98053,-2.62653 4.12456,-4.13543 6.47042,-4.55363 0.26083,-0.0465 0.9266,-0.084 1.47948,-0.0834 1.14242,10e-4 1.84427,0.14735 2.68065,0.55763 2.06336,1.0122 3.25903,3.48424 3.4467,7.12607 0.23486,4.55756 -0.94608,8.56974 -3.89243,13.22435 -2.28339,3.60723 -4.46988,6.06754 -10.64784,11.98127 -1.34403,1.28655 -2.80706,2.71424 -3.25117,3.17267 -0.4441,0.45843 -0.82108,0.83203 -0.8377,0.83023 -0.0167,-0.002 -0.28657,-0.26126 -0.59987,-0.57659 z"
         style="opacity:1;fill:#000000;fill-opacity:1;stroke:none;stroke-width:2.5;stroke-linecap:butt;stroke-linejoin:miter;stroke-miterlimit:4;stroke-dasharray:none;stroke-dashoffset:0;stroke-opacity:1" />
    </g>
    <path
       inkscape:connector-curvature="0"
       style="font-style:normal;font-variant:normal;font-weight:normal;font-stretch:normal;font-size:medium;line-height:125%;font-family:'Segoe UI Symbol';-inkscape-font-specification:'Segoe UI Symbol';letter-spacing:0px;word-spacing:0px;display:inline;fill:#d8d8d8;fill-opacity:1;stroke:#d8d8d8;stroke-width:6.5;stroke-linecap:butt;stroke-linejoin:miter;stroke-miterlimit:4;stroke-dasharray:none;stroke-opacity:1"
       d="m 39.04505,994.90107 c 1.55059,0 3.04862,0.28909 4.49409,0.86728 1.47176,0.55191 2.75954,1.40605 3.86335,2.56242 1.13009,1.13009 2.02366,2.56243 2.68069,4.29693 0.68332,1.7346 1.02498,3.7845 1.02498,6.1499 0,2.6281 -0.4205,5.0854 -1.26151,7.3718 -0.84099,2.2602 -1.9448,4.389 -3.31143,6.3864 -1.36663,1.9974 -2.91722,3.8765 -4.65179,5.6373 -1.70828,1.7346 -3.44284,3.4034 -5.20368,5.0066 -1.76085,1.5769 -3.46913,3.1012 -5.12484,4.5729 -1.62944,1.4455 -3.03549,2.8647 -4.21814,4.2576 l -0.3548,0 c -1.18265,-1.3929 -2.5887,-2.8121 -4.21814,-4.2576 -1.62943,-1.4717 -3.32457,-2.996 -5.08541,-4.5729 -1.76087,-1.6032 -3.50857,-3.272 -5.24313,-5.0066 -1.70828,-1.7608 -3.24572,-3.6399 -4.61236,-5.6373 -1.36662,-1.9974 -2.47043,-4.1262 -3.31142,-6.3864 C 3.6705,1013.863 3.25,1011.4057 3.25,1008.7776 c 0,-2.3654 0.32851,-4.4153 0.98555,-6.1499 0.68331,-1.7345 1.57688,-3.16684 2.68069,-4.29693 1.13009,-1.15637 2.41787,-2.01051 3.86334,-2.56242 1.47175,-0.57819 2.98292,-0.86728 4.53351,-0.86728 1.49803,0 2.83838,0.19711 4.02104,0.59133 1.20893,0.39421 2.28647,0.93298 3.23259,1.61629 0.9724,0.65703 1.8134,1.41919 2.52299,2.28647 0.73588,0.84104 1.36663,1.70824 1.89225,2.60184 l 0.3548,0 c 0.52563,-0.8936 1.15638,-1.7608 1.89225,-2.60184 0.73587,-0.86728 1.57687,-1.62944 2.52301,-2.28647 0.97241,-0.68331 2.04993,-1.22208 3.23259,-1.61629 1.20893,-0.39422 2.56241,-0.59133 4.06044,-0.59133 z"
       id="path4800" />
    <path
       inkscape:connector-curvature="0"
       style="font-style:normal;font-variant:normal;font-weight:normal;font-stretch:normal;font-size:medium;line-height:125%;font-family:'Segoe UI Symbol';-inkscape-font-specification:'Segoe UI Symbol';letter-spacing:0px;word-spacing:0px;display:inline;fill:#26272a;fill-opacity:1;stroke:#d8d8d8;stroke-width:6.5;stroke-linecap:butt;stroke-linejoin:miter;stroke-miterlimit:4;stroke-dasharray:none;stroke-opacity:1"
       d="m 8.21715,1008.7776 c 0,2.1025 0.34166,4.0867 1.02497,5.9527 0.68331,1.8659 1.57688,3.6268 2.68069,5.2825 1.10381,1.6557 2.33902,3.2194 3.70565,4.6912 1.39291,1.4455 2.79896,2.8252 4.21815,4.1393 1.41919,1.2878 2.77267,2.5098 4.06045,3.6662 1.31406,1.1301 2.43101,2.1945 3.35086,3.1932 0.91984,-0.9987 2.02365,-2.0631 3.31143,-3.1932 1.28778,-1.1564 2.62812,-2.3784 4.02103,-3.6662 1.41919,-1.3141 2.81209,-2.6938 4.17872,-4.1393 1.36662,-1.4718 2.5887,-3.0355 3.66623,-4.6912 1.10381,-1.6557 1.99738,-3.4166 2.68069,-5.2825 0.68331,-1.866 1.02497,-3.8502 1.02497,-5.9527 0,-1.6032 -0.18397,-2.983 -0.55191,-4.1393 -0.36794,-1.1564 -0.86728,-2.1025 -1.49803,-2.8384 -0.63075,-0.7359 -1.37977,-1.2746 -2.24705,-1.6163 -0.86728,-0.34166 -1.80026,-0.51249 -2.79895,-0.51249 -1.52431,0 -2.89094,0.30224 -4.09987,0.90669 -1.18266,0.6045 -2.26019,1.4061 -3.23259,2.4047 -0.94613,0.9725 -1.80027,2.0763 -2.56243,3.3115 -0.73587,1.2352 -1.3929,2.4704 -1.97109,3.7056 -0.60447,-1.2352 -1.27464,-2.4704 -2.01051,-3.7056 -0.73587,-1.2352 -1.59001,-2.339 -2.56242,-3.3115 -0.94613,-0.9986 -2.02366,-1.8002 -3.23259,-2.4047 -1.20894,-0.60445 -2.56244,-0.90669 -4.06047,-0.90669 -0.99869,0 -1.93167,0.17083 -2.79895,0.51249 -0.86728,0.3416 -1.61629,0.8804 -2.24704,1.6163 -0.63075,0.7359 -1.1301,1.682 -1.49803,2.8384 -0.36794,1.1563 -0.55191,2.5361 -0.55191,4.1393 z"
       id="path4798" />
    <path
       inkscape:connector-curvature="0"
       id="path4222"
       style="font-style:normal;font-variant:normal;font-weight:normal;font-stretch:normal;font-size:medium;line-height:125%;font-family:'Segoe UI Symbol';-inkscape-font-specification:'Segoe UI Symbol';letter-spacing:0px;word-spacing:0px;display:inline;fill:#000000;fill-opacity:1;stroke:#000000;stroke-width:2.5;stroke-linecap:butt;stroke-linejoin:miter;stroke-miterlimit:4;stroke-dasharray:none;stroke-opacity:1"
       d="m 39.04508,994.90107 q 2.32589,0 4.49409,0.86728 2.20762,0.82786 3.86335,2.56242 1.69514,1.69513 2.68069,4.29693 1.02497,2.6019 1.02497,6.1499 0,3.9421 -1.2615,7.3718 -1.2615,3.3903 -3.31144,6.3864 -2.04994,2.996 -4.65179,5.6373 -2.56242,2.6019 -5.20368,5.0066 -2.64127,2.3653 -5.12484,4.5729 -2.44416,2.1682 -4.21814,4.2576 l -0.3548,0 q -1.77398,-2.0894 -4.21814,-4.2576 -2.44415,-2.2076 -5.08541,-4.5729 -2.64128,-2.4047 -5.24312,-5.0066 -2.56242,-2.6412 -4.61236,-5.6373 -2.04993,-2.9961 -3.31143,-6.3864 -1.2615,-3.4297 -1.2615,-7.3718 0,-3.548 0.98554,-6.1499 1.02497,-2.6018 2.68069,-4.29693 1.69514,-1.73456 3.86334,-2.56242 2.20763,-0.86728 4.53351,-0.86728 2.24706,0 4.02104,0.59133 1.81341,0.59132 3.2326,1.61629 1.4586,0.98555 2.52299,2.28647 1.10382,1.26154 1.89225,2.60184 l 0.3548,0 q 0.78844,-1.3403 1.89225,-2.60184 1.10381,-1.30092 2.523,-2.28647 1.45861,-1.02497 3.23259,-1.61629 1.8134,-0.59133 4.06045,-0.59133 z m -30.8279,13.87653 q 0,3.1537 1.02497,5.9527 1.02497,2.7989 2.68069,5.2825 1.65571,2.4836 3.70565,4.6912 2.08937,2.1682 4.21815,4.1393 2.12878,1.9317 4.06045,3.6662 1.97109,1.6952 3.35086,3.1932 1.37976,-1.498 3.31143,-3.1932 1.93167,-1.7345 4.02103,-3.6662 2.12878,-1.9711 4.17872,-4.1393 2.04993,-2.2076 3.66623,-4.6912 1.65572,-2.4836 2.68069,-5.2825 1.02497,-2.799 1.02497,-5.9527 0,-2.4048 -0.55191,-4.1393 -0.55191,-1.7346 -1.49803,-2.8384 -0.94613,-1.1038 -2.24705,-1.6163 -1.30092,-0.51249 -2.79895,-0.51249 -2.28647,0 -4.09987,0.90669 -1.77399,0.9067 -3.23259,2.4047 -1.41919,1.4587 -2.56243,3.3115 -1.10381,1.8528 -1.97109,3.7056 -0.9067,-1.8528 -2.01051,-3.7056 -1.10381,-1.8528 -2.56242,-3.3115 -1.41919,-1.498 -3.23259,-2.4047 -1.81341,-0.90669 -4.06047,-0.90669 -1.49803,0 -2.79895,0.51249 -1.30092,0.5125 -2.24704,1.6163 -0.94613,1.1038 -1.49803,2.8384 -0.55191,1.7345 -0.55191,4.1393 z" />
  </g>
</svg>
