<svg xmlns="http://www.w3.org/2000/svg" width="580.27899" height="191.159" viewBox="0 0 580.279 191.159"><g stroke="#d8d8d8"><g stroke-width="2.1533637"><path d="M355.84366 358.89639c-6.95044-2.07326-13.27868-6.3609-18.31638-11.74621-9.00539-9.62679-12.96728-19.65642-13.08758-33.13153-.0833-9.32825 1.36139-15.77131 5.29928-23.63425 5.27497-10.53276 14.62313-19.09645 23.86998-21.86687 0 0 2.50762-.95839 3.82547-1.14614 5.99968-.85474 12.19771-.82105 18.18019.14678 1.17885.19071 3.40879 1.1021 3.40879 1.1021 8.9648 2.89844 18.9353 12.00537 23.89024 21.82106 1.48406 2.93991 2.69829 5.59938 2.69829 5.90995 0 .31056-2.09507-1.31899-4.65571-3.62122-4.83799-4.34976-14.68769-9.54688-21.64094-11.41866-11.15249-3.0022-24.25163 3.93528-30.37154 16.08519-1.72325 3.42116-4.23546 11.41606-4.23546 13.84644 0 .21872 13.80559.50537 30.67908.63701 26.55791.2072 30.67907.95826 30.67907 2.13861 0 1.17583-4.18871 2.42443-30.45182 2.35409l-30.45182.45451.32393 3.09702c1.14055 10.90454 10.22971 23.08211 20.04632 26.33878 9.60441 3.18627 23.2193.34727 32.62077-6.80216 3.82094-2.90566 4.59191-3.23517 3.73892-1.59796-4.27394 8.20317-13.96388 16.8932-22.18758 19.89801 0 0-2.36433 1.10975-3.63603 1.32855-6.6445 1.1432-13.76465 1.73411-20.22547-.1931z" transform="matrix(.9173 0 0 .9404 -23.722554 -175.88387)"/><path d="M376.84398 353.99041c7.68876-2.37481 8.32735-3.47876 1.34427-2.32388-13.45938 2.22596-27.03967-5.81462-33.57528-19.87913-10.75679-23.14841 1.4278-50.63631 24.37463-54.98808 5.32036-1.00899 13.03491-.0491 17.69378 2.20168l3.02289 1.46037-3.1621-2.77752c-8.8569-7.77965-24.23641-9.05621-36.22725-3.00698-5.28605 2.66674-13.70133 11.1018-16.44897 16.48761-5.00523 9.81107-6.49099 25.40226-3.39059 35.58031 6.67564 21.91499 26.29795 33.44482 46.36862 27.24562z" transform="matrix(.9173 0 0 .9404 -23.722554 -175.88387)"/></g><g stroke-width="2"><path d="M92.513884 378.40104c-.7004-1.66333-3.96511-9.29839-7.25493-16.96678l-5.98148-13.94255v-64.37939h-9.99878l-14.15247 12.04438c-13.660142 11.62539-16.88466 13.59762-17.4481 10.67192-.21094-1.09533 73.303806-64.33515 126.648016-108.94682 5.60297-4.68575 8.57933-5.57393 8.57933-2.56018 0 .69207-6.04961 6.3294-13.44357 12.52741-7.39397 6.19801-24.34346 20.47283-37.66555 31.72182l-24.221976 20.45272-.28561 60.89126c-.26916 57.38734-.37812 60.90908-1.89352 61.20086-1.10664.21307-2.00492-.63324-2.88136-2.71465z" transform="translate(-36.670073 -191.4864)"/><path d="M92.912624 325.38127v-42.26895h-9.0901v63.6151l4.3178 10.44199c2.37479 5.74311 4.42006 10.45074 4.54505 10.46141.12499.0107.22725-19.00163.22725-42.24955zM79.277474 277.17178c0-1.11382-.36696-1.1991-1.81802-.42252-.99991.53513-1.81801 1.1631-1.81801 1.39549 0 .23239.8181.42253 1.81801.42253 1.02853 0 1.81802-.60601 1.81802-1.3955zM92.912624 271.21055v-7.35672l-4.54505 3.80533c-4.02916 3.3734-4.54505 4.20843-4.54505 7.35672v3.5514h9.0901v-7.35673z" transform="translate(-36.670073 -191.4864)"/></g><g stroke-width="2"><path d="M147.05445 378.40104c-.70039-1.66333-3.96511-9.29839-7.25492-16.96678l-5.98148-13.94255v-64.29264l-5.68131-.27062c-4.96314-.23642-5.68131-.49793-5.68131-2.06876 0-2.39778 26.22135-24.53126 28.17419-23.78188 1.08542.41651 1.36863 2.30531 1.36863 9.12783v8.60265l4.50847-3.03398c8.08966-5.44393 15.88934-5.01121 22.66729 1.25758 8.17627 7.56208 6.65127 21.04149-2.69744 23.84243-5.62982 1.68673-9.40603-.62573-13.56669-8.30794-3.09163-5.70837-3.33043-5.91801-7.04799-6.1877l-3.84794-.27913-.2351 49.35332c-.22092 46.37463-.33215 49.37199-1.84303 49.66285-1.10663.21305-2.00494-.6333-2.88137-2.71468z" transform="translate(-38.4632103 -191.4864)"/><path d="M147.4532 325.38127v-42.26895h-9.0901v63.6151l4.3178 10.44199c2.37478 5.74311 4.42006 10.45074 4.54505 10.46141.12498.0107.22725-19.00163.22725-42.24955zM178.73323 290.31465c3.70455-4.4026 3.23987-8.37301-1.53929-13.15218-5.9458-5.94579-12.98605-6.37344-19.63697-1.19282-2.06476 1.60831-2.07889 1.68862-.29699 1.68862 2.82695 0 7.07804 4.06568 8.78822 8.40495 2.89627 7.34875 8.49882 9.22646 12.68503 4.25143zM133.81805 277.17178c0-1.11382-.36696-1.1991-1.81802-.42252-.99991.53513-1.81802 1.1631-1.81802 1.39549 0 .23239.81811.42253 1.81802.42253 1.02853 0 1.81802-.60601 1.81802-1.3955zM147.4532 271.21055v-7.35672l-4.54505 3.80533c-4.02916 3.3734-4.54505 4.20843-4.54505 7.35672v3.5514h9.0901v-7.35673z" transform="translate(-38.4632103 -191.4864)"/></g><g stroke-width="2"><path d="M277.2823 378.40104c-.7004-1.66333-3.96511-9.29839-7.25493-16.96678l-5.98147-13.94255V218.15505l-5.68131-.27063c-4.96315-.23642-5.68131-.49793-5.68131-2.06876 0-2.39778 26.22134-24.53153 28.17419-23.78215 1.17455.45071 1.36862 4.20099 1.36862 26.44537v60.96664l13.62957-11.44664c8.83802-7.4225 14.11312-11.26107 15.00503-10.91881 1.2124.46524 1.34775 7.83106 1.14183 62.1393-.28062 74.00849.40513 71.16068-10.82129 44.93937l-7.13801-16.67213v-64.21916l-5.90277-.30481-5.90277.0523-.23304 48.71703c-.22056 46.10858-.33022 49.09289-1.84097 49.38373-1.10663.21305-2.00494-.6333-2.88137-2.71468z" transform="translate(-52.886369 -190.98133)"/><path d="M277.68104 310.38261v-92.3144h-9.09009v128.65921l4.31779 10.44199c2.37479 5.74311 4.42006 10.45074 4.54505 10.46141.12499.0107.22725-25.75102.22725-57.24821zM307.67836 325.38127v-42.26895h-9.0901v63.6151l4.3178 10.44199c2.37479 5.74311 4.42006 10.45074 4.54505 10.46141.12499.0107.22725-19.00163.22725-42.24955zM294.04322 277.17178c0-1.11382-.36697-1.1991-1.81802-.42252-.99991.53513-1.81802 1.1631-1.81802 1.39549 0 .23239.81811.42253 1.81802.42253 1.02852 0 1.81802-.60601 1.81802-1.3955zM307.67836 271.21055v-7.35672l-4.54505 3.80533c-4.02916 3.3734-4.54505 4.20843-4.54505 7.35672v3.5514h9.0901v-7.35673zM264.0459 212.12772c0-1.11381-.36697-1.1991-1.81802-.42252-.99991.53513-1.81802 1.16311-1.81802 1.3955 0 .23238.81811.42252 1.81802.42252 1.02852 0 1.81802-.60601 1.81802-1.3955zM277.68104 206.16649v-7.35673l-4.54505 3.80533c-4.02915 3.3734-4.54504 4.20844-4.54504 7.35672v3.5514h9.09009v-7.35672z" transform="translate(-52.886369 -190.98133)"/></g><g stroke-width="2"><path d="M494.43119 380.65394c-2.47846-4.18847-13.83292-32.56564-14.22324-35.54687l-.51172-3.90844-4.09055 3.83022c-6.38034 5.9743-12.70822 8.5411-20.90722 8.48066-8.54383-.063-13.62049-2.20329-20.3724-8.58896-5.36212-5.07127-10.59374-14.45789-12.41011-22.26631-1.44367-6.20622-1.44714-18.93311-.006-24.99776 4.3106-18.15018 17.58909-31.05113 32.10032-31.18766 8.05667-.0758 14.24669 2.39602 20.75943 8.28972l5.38184 4.87029v-11.01292c0-8.88736.2598-11.11261 1.3461-11.52946.84953-.326 6.04705 3.40115 14.08965 10.10369 11.04406 9.20427 12.74311 10.97367 12.74311 13.2712 0 2.6068-.0832 2.65098-4.99165 2.65098h-4.99167l-.23514 48.84693c-.21489 44.63739-.36494 48.87191-1.74116 49.13685-.82831.15946-1.70096-.0395-1.93922-.44216z" transform="translate(-62.37980669 -191.48753)"/><path d="M493.78588 325.38127v-42.26895h-9.0901v63.6151l4.3178 10.44199c2.37478 5.74311 4.42006 10.45074 4.54504 10.46141.12499.0107.22726-19.00163.22726-42.24955zM446.61712 345.35421c-6.2399-7.10685-9.5041-17.14591-9.44985-29.06303.0205-4.4996.51026-10.1781 1.08838-12.6189 2.45855-10.3798 9.84703-20.69032 17.04751-23.78957 4.85306-2.08887 12.06192-1.98461 16.55717.23946l3.66765 1.81461-1.84047-2.33978c-4.67335-5.94119-15.16181-10.00995-22.33899-8.6659-5.57038 1.04317-8.75533 2.70971-13.73513 7.18697-12.84925 11.55259-16.49389 35.56078-8.00064 52.70245 3.52063 7.10558 8.86383 13.17438 13.97575 15.87362 5.14784 2.71822 6.18776 2.25813 3.02862-1.33993z" transform="translate(-62.37980669 -191.48753)"/><path d="M464.96996 347.09019c5.14963-2.60359 8.77241-5.8057 12.01364-10.61866l3.16713-4.70292V292.85172l-4.31939-4.3194c-7.04247-7.04247-14.65411-7.94014-22.02877-2.59797-17.2262 12.4786-16.39758 49.86018 1.3504 60.92043 3.35186 2.08883 6.02437 2.15292 9.81699.23541z" fill="#26272a" transform="translate(-62.37980669 -191.48753)"/><path d="M493.78588 275.01588c0-3.14829-.51589-3.98332-4.54505-7.35672l-4.54505-3.80533v14.71345h9.0901v-3.5514zM501.96696 278.14475c0-.23239-.81811-.86036-1.81802-1.39549-1.45105-.77658-1.81802-.6913-1.81802.42252 0 .78949.7895 1.3955 1.81802 1.3955.99991 0 1.81802-.19014 1.81802-.42253z" transform="translate(-62.37980669 -191.48753)"/></g><g stroke-width="2"><path d="M547.92771 378.40104c-.70039-1.66333-3.96511-9.29839-7.25492-16.96678l-5.98148-13.94255v-64.29264l-5.68131-.27062c-4.96315-.23642-5.68131-.49793-5.68131-2.06876 0-2.39778 26.22135-24.53126 28.17419-23.78188 1.08541.41651 1.36862 2.30531 1.36862 9.12783v8.60265l4.50848-3.03398c8.08966-5.44393 15.88934-5.01121 22.66729 1.25758 8.17626 7.56208 6.65126 21.04149-2.69745 23.84243-5.62981 1.68673-9.40603-.62573-13.56668-8.30794-3.09164-5.70837-3.33043-5.91801-7.04799-6.1877l-3.84794-.27913-.2351 49.35332c-.22092 46.37463-.33216 49.37199-1.84303 49.66285-1.10663.21305-2.00494-.6333-2.88137-2.71468z" transform="translate(-64.76046 -191.48639)"/><path d="M548.32646 325.38127v-42.26895h-9.0901v63.6151l4.31779 10.44199c2.37479 5.74311 4.42006 10.45074 4.54505 10.46141.12499.0107.22726-19.00163.22726-42.24955zM579.60649 290.31465c3.70455-4.4026 3.23987-8.37301-1.53929-13.15218-5.9458-5.94579-12.98605-6.37344-19.63697-1.19282-2.06477 1.60831-2.07889 1.68862-.297 1.68862 2.82696 0 7.07804 4.06568 8.78823 8.40495 2.89627 7.34875 8.49882 9.22646 12.68503 4.25143zM534.69131 277.17178c0-1.11382-.36697-1.1991-1.81802-.42252-.99991.53513-1.81802 1.1631-1.81802 1.39549 0 .23239.81811.42253 1.81802.42253 1.02853 0 1.81802-.60601 1.81802-1.3955zM548.32646 271.21055v-7.35672l-4.54505 3.80533c-4.02916 3.3734-4.54505 4.20843-4.54505 7.35672v3.5514h9.0901v-7.35673z" transform="translate(-64.76046 -191.48639)"/></g><g stroke-width="2"><path d="M617.01244 378.40104c-.70039-1.66333-3.96511-9.29839-7.25492-16.96678l-5.98148-13.94255v-64.29264l-5.68131-.27062c-4.96314-.23642-5.68131-.49793-5.68131-2.06876 0-2.39778 26.22135-24.53126 28.17419-23.78188 1.10903.42557 1.36863 2.50777 1.36863 10.97755v10.45238l10.22636.25702c8.36986.21036 10.22635.50455 10.22635 1.62054 0 1.1159-1.85559 1.41017-10.21854 1.62046l-10.21855.25695-.23506 49.27173c-.22088 46.29662-.33216 49.29042-1.84299 49.58128-1.10663.21305-2.00494-.6333-2.88137-2.71468z" transform="matrix(1.00001 0 0 1 -63.136223 -191.48639)"/><path d="M617.41119 325.38127v-42.26895h-9.0901v63.6151l4.3178 10.44199c2.37479 5.74311 4.42006 10.45074 4.54505 10.46141.12499.0107.22725-19.00163.22725-42.24955zM603.77604 277.17178c0-1.11382-.36696-1.1991-1.81801-.42252-.99992.53513-1.81802 1.1631-1.81802 1.39549 0 .23239.8181.42253 1.81802.42253 1.02852 0 1.81801-.60601 1.81801-1.3955zM617.41119 271.21055v-7.35672l-4.54505 3.80533c-4.02916 3.3734-4.54505 4.20843-4.54505 7.35672v3.5514h9.0901v-7.35673z" transform="matrix(1.00001 0 0 1 -63.136223 -191.48639)"/></g><g stroke-width="2"><path d="M221.59324 378.40104c-.70039-1.66333-3.96511-9.29839-7.25492-16.96678l-5.98148-13.94255v-64.29264l-5.68131-.27062c-4.96314-.23642-5.68131-.49793-5.68131-2.06876 0-2.40458 26.22173-24.53111 28.18056-23.77944 1.21179.465 1.34725 7.83866 1.14137 62.12674-.2203 58.08789-.32527 61.61676-1.84154 61.9087-1.10664.21307-2.00493-.63324-2.88137-2.71465z" transform="translate(-41.955422 -191.4864)"/><path d="M221.99199 325.38127v-42.26895h-9.0901v63.6151l4.3178 10.44199c2.37479 5.74311 4.42006 10.45074 4.54505 10.46141.12499.0107.22725-19.00163.22725-42.24955zM208.35684 277.17178c0-1.11382-.36696-1.1991-1.81801-.42252-.99992.53513-1.81802 1.1631-1.81802 1.39549 0 .23239.8181.42253 1.81802.42253 1.02852 0 1.81801-.60601 1.81801-1.3955zM221.99199 271.21055v-7.35672l-4.54505 3.80533c-4.02916 3.3734-4.54505 4.20843-4.54505 7.35672v3.5514h9.0901v-7.35673zM213.12646 252.47314c-3.20378-.61682-8.09995-5.83254-9.19368-9.79371-2.76597-10.01749 6.69623-19.4797 16.71373-16.71373 10.11205 2.79207 13.56346 15.72811 6.09676 22.851-3.96291 3.78045-7.72525 4.79072-13.61681 3.65644z" transform="translate(-41.955422 -191.4864)"/><path d="M221.86016 247.27462c4.96013-2.56499 6.14507-9.54646 2.37978-14.02125-4.51734-5.36856-12.84443-4.18902-15.51285 2.1974-1.79505 4.29616-.96123 7.91525 2.49335 10.82209 3.08291 2.59409 6.87082 2.95073 10.63972 1.00176z" transform="translate(-41.955422 -191.4864)"/></g></g><path style="line-height:125%;-inkscape-font-specification:'Segoe UI Symbol'" d="M407.86523 3.25c-1.55058 0-3.06144.2889975-4.5332.8671875-1.44547.55191-2.73319 1.40613-3.86328 2.5625-1.10382 1.13009-1.99637 2.562315-2.67969 4.2968745-.65702 1.734561-.98633 3.785081-.98633 6.150391 0 2.62813.42072 5.084624 1.26172 7.371094.841 2.26019 1.94393 4.389349 3.31055 6.386719 1.36664 1.99737 2.90501 3.875878 4.61328 5.636718 1.73456 1.73456 3.48135 3.4027 5.24219 5.00586 1.76086 1.57687 3.45652 3.10247 5.08594 4.574218 1.62945 1.44547 3.0361 2.864903 4.21875 4.257813h.35546c1.18266-1.39291 2.58736-2.812342 4.2168-4.257813 1.65571-1.471748 3.36415-2.997348 5.125-4.574218 1.76084-1.60316 3.49486-3.2713 5.20313-5.00586 1.73456-1.76084 3.28572-3.639348 4.65234-5.636718 1.36663-1.99737 2.4715-4.126529 3.3125-6.386719.84101-2.28647 1.25977-4.742964 1.25977-7.371094 0-2.36531-.34012-4.41583-1.02344-6.150391-.65704-1.7345595-1.55155-3.1667845-2.68164-4.2968745-1.10381-1.15637-2.39153-2.01059-3.86328-2.5625-1.44547-.57819-2.94354-.8671875-4.49414-.8671875-1.49803 0-2.85161.1975769-4.06055.5917969-1.18265.39421-2.26.9319244-3.23242 1.6152343-.94612.65703-1.78756 1.4198294-2.52344 2.2871094-.73587.841-1.365 1.7080025-1.89063 2.6015624h-.35546c-.52562-.8935599-1.1567-1.7605624-1.89258-2.6015624-.70959-.86728-1.55104-1.6300794-2.52344-2.2871094-.94612-.6833099-2.02347-1.2210243-3.23242-1.6152343-1.18265-.39422-2.52345-.5917969-4.02149-.5917969zm66.78321 0c-1.55059 0-3.06146.2889975-4.53321.8671875-1.44547.55191-2.73319 1.40613-3.86328 2.5625-1.10381 1.13009-1.99637 2.562315-2.67968 4.2968745-.65704 1.734561-.98633 3.785081-.98633 6.150391 0 2.62813.42071 5.084624 1.26172 7.371094.84099 2.26019 1.94392 4.389349 3.31054 6.386719 1.36664 1.99737 2.905 3.875878 4.61328 5.636718 1.73456 1.73456 3.48132 3.4027 5.24219 5.00586 1.76084 1.57687 3.45651 3.10247 5.08594 4.574218 1.62944 1.44547 3.0361 2.864903 4.21875 4.257813h.35352c1.18264-1.39291 2.58931-2.812342 4.21874-4.257813 1.65572-1.471748 3.36415-2.997348 5.125-4.574218 1.76085-1.60316 3.49485-3.2713 5.20313-5.00586 1.73457-1.76084 3.28571-3.639348 4.65234-5.636718 1.36663-1.99737 2.46956-4.126529 3.31055-6.386719.84101-2.28647 1.26172-4.742964 1.26172-7.371094 0-2.36531-.34012-4.41583-1.02344-6.150391-.65703-1.7345595-1.55155-3.1667845-2.68164-4.2968745-1.10381-1.15637-2.39152-2.01059-3.86328-2.5625-1.44547-.57819-2.94355-.8671875-4.49414-.8671875-1.49803 0-2.85162.1975769-4.06055.5917969-1.18266.39421-2.26001.9319244-3.23242 1.6152343-.94614.65703-1.78757 1.4198294-2.52344 2.2871094-.73587.841-1.36695 1.7080025-1.89257 2.6015624h-.35352c-.52562-.8935599-1.1567-1.7605624-1.89258-2.6015624-.70959-.86728-1.55104-1.6300794-2.52344-2.2871094-.94612-.6833099-2.02349-1.2210243-3.23242-1.6152343-1.18266-.39422-2.52345-.5917969-4.02148-.5917969zm-66.78321 4.7695312c1.49804 0 2.85161.3017801 4.06055.90625 1.20894.6044701 2.2863 1.4056068 3.23242 2.4042968.9724.97241 1.82663 2.07729 2.5625 3.3125.73589 1.23522 1.40725 2.469858 2.01172 3.705078.57819-1.23522 1.23482-2.469858 1.9707-3.705078.76217-1.23521 1.61638-2.34009 2.5625-3.3125.97241-.99869 2.04977-1.7998267 3.23243-2.4042968 1.20894-.6044699 2.5753-.90625 4.09961-.90625.99869 0 1.93154.1700588 2.79882.5117188.86729.34165 1.6173.8813175 2.24805 1.617188.63075.73587 1.13011 1.68151 1.49805 2.83789.36793 1.15637.55078 2.537475.55078 4.140625 0 2.1025-.34012 4.085202-1.02344 5.951172-.68331 1.86597-1.57782 3.627483-2.68164 5.283203-1.07752 1.65572-2.29938 3.219656-3.66601 4.691406-1.36662 1.44547-2.7605 2.824612-4.17969 4.138672-1.3929 1.28778-2.73174 2.509636-4.01953 3.666016-1.28778 1.13009-2.39266 2.194669-3.3125 3.193359-.91985-.99869-2.03555-2.063269-3.34961-3.193359-1.28778-1.15638-2.64136-2.378236-4.06055-3.666016-1.41919-1.31406-2.82584-2.693202-4.21875-4.138672-1.36662-1.47175-2.60127-3.035686-3.70508-4.691406-1.10381-1.65572-1.99832-3.417233-2.68164-5.283203-.68331-1.86597-1.02539-3.848672-1.02539-5.951172 0-1.60315.1848-2.984255.55274-4.140625.36795-1.15638.86729-2.10202 1.49804-2.83789.63075-.7358705 1.37882-1.275538 2.2461-1.617188.86729-.34166 1.80014-.5117188 2.79882-.5117188zm66.78321 0c1.49803 0 2.8516.3017801 4.06054.90625 1.20893.6044701 2.2863 1.4056068 3.23243 2.4042968.97241.97241 1.82663 2.07729 2.5625 3.3125.73587 1.23522 1.40725 2.469858 2.01171 3.705078.57819-1.23522 1.23484-2.469858 1.97071-3.705078.76216-1.23521 1.61637-2.34009 2.5625-3.3125.9724-.99869 2.04976-1.7998267 3.23242-2.4042968 1.20893-.6044699 2.5753-.90625 4.09961-.90625.99869 0 1.93155.1700588 2.79883.5117188.86728.34165 1.61729.8813175 2.24804 1.617188.63075.73587 1.13011 1.68151 1.49805 2.83789.36794 1.15637.55078 2.537475.55078 4.140625 0 2.1025-.34208 4.085202-1.02539 5.951172-.68331 1.86597-1.57588 3.627483-2.67969 5.283203-1.07753 1.65572-2.29939 3.219656-3.66601 4.691406-1.36663 1.44547-2.7605 2.824612-4.17969 4.138672-1.39291 1.28778-2.73175 2.509636-4.01953 3.666016-1.28778 1.13009-2.39266 2.194669-3.3125 3.193359-.91985-.99869-2.0375-2.063269-3.35156-3.193359-1.28778-1.15638-2.64136-2.378236-4.06055-3.666016-1.41919-1.31406-2.82389-2.693202-4.2168-4.138672-1.36663-1.47175-2.60322-3.035686-3.70703-4.691406-1.10381-1.65572-1.99637-3.417233-2.67969-5.283203-.68331-1.86597-1.02539-3.848672-1.02539-5.951172 0-1.60315.1848-2.984255.55274-4.140625.36793-1.15638.8673-2.10202 1.49805-2.83789.63075-.7358705 1.37881-1.275538 2.24609-1.617188.86728-.34166 1.80014-.5117188 2.79883-.5117188z" font-weight="400" font-family="Segoe UI Symbol" letter-spacing="0" word-spacing="0" fill="#d8d8d8" stroke="#d8d8d8" stroke-width="6.5"/><g font-weight="400" font-family="Segoe UI Symbol" letter-spacing="0" word-spacing="0" stroke="#000" stroke-width="2.5"><path d="M431.79799 3.24954c1.5506 0 3.04863.289093 4.4941.86728 1.47175.551907 2.75953 1.406047 3.86334 2.56242 1.13009 1.130093 2.02366 2.56242 2.6807 4.29698.68331 1.73456 1.02497 3.784497 1.02497 6.14981 0 2.628127-.4205 5.085423-1.26151 7.37189-.841 2.260187-1.94481 4.388967-3.31144 6.38634-1.36662 1.997373-2.91722 3.87648-4.65177 5.63732-1.70828 1.73456-3.44285 3.40342-5.20368 5.00658-1.76086 1.576873-3.46914 3.101183-5.12485 4.572928-1.62944 1.44547-3.03549 2.86466-4.21814 4.25756h-.3548c-1.18267-1.3929-2.58871-2.81209-4.21816-4.25756-1.62942-1.471745-3.32456-2.996055-5.08542-4.572928-1.76084-1.60316-3.50855-3.27202-5.24311-5.00658-1.70827-1.76084-3.24572-3.639947-4.61236-5.63732-1.36662-1.997373-2.47043-4.126153-3.31142-6.38634-.84101-2.286467-1.26151-4.743763-1.26151-7.37189 0-2.365313.32852-4.41525.98555-6.14981.68331-1.73456 1.57688-3.166887 2.6807-4.29698 1.13008-1.156373 2.41786-2.010513 3.86333-2.56242 1.47176-.578187 2.98292-.86728 4.53351-.86728 1.49803 0 2.83837.19711 4.02102.59133 1.20894.394213 2.28648.932977 3.2326 1.61629.9724.657033 1.8134 1.41919 2.52299 2.28647.73588.841 1.36663 1.70828 1.89226 2.60184h.3548c.52563-.89356 1.15638-1.76084 1.89225-2.60184.73588-.86728 1.57688-1.629437 2.523-2.28647.97242-.683313 2.04995-1.222077 3.2326-1.61629 1.20894-.39422 2.56242-.59133 4.06045-.59133zm-30.82791 13.87649c0 2.1025.34166 4.086733 1.02497 5.9527.68332 1.865967 1.57689 3.62681 2.6807 5.28253 1.10381 1.65572 2.33902 3.219453 3.70565 4.6912 1.3929 1.445467 2.79895 2.82523 4.21814 4.13929 1.41919 1.28778 2.77267 2.50986 4.06045 3.66624 1.31406 1.130093 2.43102 2.194483 3.35088 3.19317.91983-.998687 2.02363-2.063077 3.31141-3.19317 1.28778-1.15638 2.62813-2.37846 4.02103-3.66624 1.41919-1.31406 2.8121-2.693823 4.17872-4.13929 1.36663-1.471747 2.58871-3.03548 3.66623-4.6912 1.10382-1.65572 1.99738-3.416563 2.6807-5.28253.68331-1.865967 1.02497-3.8502 1.02497-5.9527 0-1.603153-.18397-2.982917-.5519-4.13929-.36794-1.15638-.86728-2.102507-1.49802-2.83838-.63076-.735873-1.37977-1.274637-2.24705-1.61629-.86728-.34166-1.80027-.51249-2.79895-.51249-1.52432 0-2.89094.302237-4.09987.90671-1.18267.604467-2.2602 1.406043-3.2326 2.40473-.94613.972407-1.80027 2.076217-2.56243 3.31143-.73587 1.23522-1.39291 2.47044-1.97109 3.70566-.60447-1.23522-1.27465-2.47044-2.01052-3.70566-.73588-1.235213-1.59002-2.339023-2.56241-3.31143-.94613-.998687-2.02366-1.800263-3.2326-2.40473-1.20893-.604473-2.56242-.90671-4.06045-.90671-.99869 0-1.93167.17083-2.79895.51249-.86728.341653-1.6163.880417-2.24705 1.61629-.63075.735873-1.13009 1.682-1.49804 2.83838-.36794 1.156373-.55192 2.536137-.55192 4.13929z" style="line-height:125%;-inkscape-font-specification:'Segoe UI Symbol'" fill="none"/><path style="line-height:125%;-inkscape-font-specification:'Segoe UI Symbol'" d="M498.38104 3.24955q2.32589 0 4.49409.86728 2.20762.82786 3.86335 2.56242 1.69514 1.69514 2.68069 4.29698 1.02497 2.60184 1.02497 6.14981 0 3.94219-1.2615 7.37189-1.2615 3.39028-3.31144 6.38634-2.04994 2.99606-4.65179 5.63732-2.56242 2.60184-5.20368 5.00658-2.64127 2.36531-5.12484 4.572928-2.44416 2.1682-4.21814 4.25756h-.3548q-1.77398-2.08936-4.21814-4.25756-2.44415-2.207618-5.08541-4.572928-2.64128-2.40474-5.24312-5.00658-2.56242-2.64126-4.61236-5.63732-2.04993-2.99606-3.31143-6.38634-1.2615-3.4297-1.2615-7.37189 0-3.54797.98554-6.14981 1.02497-2.60184 2.68069-4.29698 1.69514-1.73456 3.86334-2.56242 2.20763-.86728 4.53351-.86728 2.24706 0 4.02104.59133 1.81341.59132 3.2326 1.61629 1.4586.98555 2.52299 2.28647 1.10382 1.2615 1.89225 2.60184h.3548q.78844-1.34034 1.89225-2.60184 1.10381-1.30092 2.523-2.28647 1.45861-1.02497 3.23259-1.61629 1.8134-.59133 4.06045-.59133zm-30.8279 13.87649q0 3.15375 1.02497 5.9527t2.68069 5.28253q1.65571 2.48358 3.70565 4.6912 2.08937 2.1682 4.21815 4.13929 2.12878 1.93167 4.06045 3.66624 1.97109 1.69514 3.35086 3.19317 1.37976-1.49803 3.31143-3.19317 1.93167-1.73457 4.02103-3.66624 2.12878-1.97109 4.17872-4.13929 2.04993-2.20762 3.66623-4.6912 1.65572-2.48358 2.68069-5.28253 1.02497-2.79895 1.02497-5.9527 0-2.40473-.55191-4.13929-.55191-1.73457-1.49803-2.83838-.94613-1.10381-2.24705-1.61629-1.30092-.51249-2.79895-.51249-2.28647 0-4.09987.90671-1.77399.9067-3.23259 2.40473-1.41919 1.45861-2.56243 3.31143-1.10381 1.85283-1.97109 3.70566-.9067-1.85283-2.01051-3.70566-1.10381-1.85282-2.56242-3.31143-1.41919-1.49803-3.23259-2.40473-1.81341-.90671-4.06047-.90671-1.49803 0-2.79895.51249-1.30092.51248-2.24704 1.61629-.94613 1.10381-1.49803 2.83838-.55191 1.73456-.55191 4.13929z"/></g></svg>