<?xml version="1.0" encoding="UTF-8" standalone="no"?>
<!-- Created with Inkscape (http://www.inkscape.org/) -->

<svg
   xmlns:osb="http://www.openswatchbook.org/uri/2009/osb"
   xmlns:dc="http://purl.org/dc/elements/1.1/"
   xmlns:cc="http://creativecommons.org/ns#"
   xmlns:rdf="http://www.w3.org/1999/02/22-rdf-syntax-ns#"
   xmlns:svg="http://www.w3.org/2000/svg"
   xmlns="http://www.w3.org/2000/svg"
   xmlns:sodipodi="http://sodipodi.sourceforge.net/DTD/sodipodi-0.dtd"
   xmlns:inkscape="http://www.inkscape.org/namespaces/inkscape"
   width="580.27899"
   height="191.159"
   viewBox="0 0 580.279 191.159"
   id="svg14553"
   version="1.1"
   inkscape:version="0.91 r13725"
   sodipodi:docname="weblogoDarkmodeH1.svg">
  <defs
     id="defs14555">
    <linearGradient
       id="linearGradient16600"
       osb:paint="solid">
      <stop
         style="stop-color:#ffffff;stop-opacity:1;"
         offset="0"
         id="stop16602" />
    </linearGradient>
  </defs>
  <sodipodi:namedview
     id="base"
     pagecolor="#ffffff"
     bordercolor="#666666"
     borderopacity="1.0"
     inkscape:pageopacity="0.0"
     inkscape:pageshadow="2"
     inkscape:zoom="4"
     inkscape:cx="430.95379"
     inkscape:cy="118.59802"
     inkscape:document-units="px"
     inkscape:current-layer="layer9"
     showgrid="false"
     units="px"
     inkscape:window-width="1920"
     inkscape:window-height="1017"
     inkscape:window-x="1592"
     inkscape:window-y="-8"
     inkscape:window-maximized="1"
     showguides="true"
     inkscape:guide-bbox="true">
    <sodipodi:guide
       position="403.78126,83.074221"
       orientation="0,1"
       id="guide4214" />
    <sodipodi:guide
       position="403.72657,172.125"
       orientation="0,1"
       id="guide4216" />
    <sodipodi:guide
       position="390.81641,115.17578"
       orientation="0,1"
       id="guide4210" />
    <sodipodi:guide
       position="357.50001,29.750001"
       orientation="0,1"
       id="guide4212" />
  </sodipodi:namedview>
  <metadata
     id="metadata14558">
    <rdf:RDF>
      <cc:Work
         rdf:about="">
        <dc:format>image/svg+xml</dc:format>
        <dc:type
           rdf:resource="http://purl.org/dc/dcmitype/StillImage" />
        <dc:title></dc:title>
      </cc:Work>
    </rdf:RDF>
  </metadata>
  <g
     inkscape:groupmode="layer"
     id="layer5"
     inkscape:label="Layer 2"
     style="display:none"
     transform="translate(0,-54.945012)">
    <rect
       style="opacity:1;fill:#ffded3;fill-opacity:1;stroke:none;stroke-width:2;stroke-linecap:butt;stroke-linejoin:miter;stroke-miterlimit:4;stroke-dasharray:none;stroke-dashoffset:0;stroke-opacity:1"
       id="rect4347"
       width="815.29413"
       height="363.45288"
       x="-59.396969"
       y="-53.002163" />
  </g>
  <g
     inkscape:label="Layer 1"
     inkscape:groupmode="layer"
     id="layer1"
     style="display:inline"
     transform="translate(0,-861.20317)">
    <g
       id="g16752"
       style="fill:#000000;fill-opacity:1;stroke:#d8d8d8;stroke-width:2.1533637;stroke-linecap:butt;stroke-linejoin:miter;stroke-miterlimit:4;stroke-dasharray:none;stroke-opacity:1"
       transform="matrix(0.91730831,0,0,0.94039349,-23.722554,685.3193)">
      <path
         id="path16720"
         d="m 355.84366,358.89639 c -6.95044,-2.07326 -13.27868,-6.3609 -18.31638,-11.74621 -9.00539,-9.62679 -12.96728,-19.65642 -13.08758,-33.13153 -0.0833,-9.32825 1.36139,-15.77131 5.29928,-23.63425 5.27497,-10.53276 14.62313,-19.09645 23.86998,-21.86687 0,0 2.50762,-0.95839 3.82547,-1.14614 5.99968,-0.85474 12.19771,-0.82105 18.18019,0.14678 1.17885,0.19071 3.40879,1.1021 3.40879,1.1021 8.9648,2.89844 18.9353,12.00537 23.89024,21.82106 1.48406,2.93991 2.69829,5.59938 2.69829,5.90995 0,0.31056 -2.09507,-1.31899 -4.65571,-3.62122 -4.83799,-4.34976 -14.68769,-9.54688 -21.64094,-11.41866 -11.15249,-3.0022 -24.25163,3.93528 -30.37154,16.08519 -1.72325,3.42116 -4.23546,11.41606 -4.23546,13.84644 0,0.21872 13.80559,0.50537 30.67908,0.63701 26.55791,0.2072 30.67907,0.95826 30.67907,2.13861 0,1.17583 -4.18871,2.42443 -30.45182,2.35409 l -30.45182,0.45451 0.32393,3.09702 c 1.14055,10.90454 10.22971,23.08211 20.04632,26.33878 9.60441,3.18627 23.2193,0.34727 32.62077,-6.80216 3.82094,-2.90566 4.59191,-3.23517 3.73892,-1.59796 -4.27394,8.20317 -13.96388,16.8932 -22.18758,19.89801 0,0 -2.36433,1.10975 -3.63603,1.32855 -6.6445,1.1432 -13.76465,1.73411 -20.22547,-0.1931 z"
         style="fill:#000000;fill-opacity:1;stroke:#d8d8d8;stroke-width:2.1533637;stroke-linecap:butt;stroke-linejoin:miter;stroke-miterlimit:4;stroke-dasharray:none;stroke-opacity:1"
         inkscape:connector-curvature="0"
         sodipodi:nodetypes="assssaasssssssssscsssssaa" />
      <path
         id="path16716"
         d="m 376.84398,353.99041 c 7.68876,-2.37481 8.32735,-3.47876 1.34427,-2.32388 -13.45938,2.22596 -27.03967,-5.81462 -33.57528,-19.87913 -10.75679,-23.14841 1.4278,-50.63631 24.37463,-54.98808 5.32036,-1.00899 13.03491,-0.0491 17.69378,2.20168 l 3.02289,1.46037 -3.1621,-2.77752 c -8.8569,-7.77965 -24.23641,-9.05621 -36.22725,-3.00698 -5.28605,2.66674 -13.70133,11.1018 -16.44897,16.48761 -5.00523,9.81107 -6.49099,25.40226 -3.39059,35.58031 6.67564,21.91499 26.29795,33.44482 46.36862,27.24562 z"
         style="fill:#000000;fill-opacity:1;stroke:#d8d8d8;stroke-width:2.1533637;stroke-linecap:butt;stroke-linejoin:miter;stroke-miterlimit:4;stroke-dasharray:none;stroke-opacity:1"
         inkscape:connector-curvature="0" />
    </g>
    <g
       id="g16729"
       style="fill:#000000;fill-opacity:1;stroke:#d8d8d8;stroke-width:2;stroke-linecap:butt;stroke-linejoin:miter;stroke-miterlimit:4;stroke-dasharray:none;stroke-opacity:1"
       transform="matrix(1,0,0,0.99999895,-36.670073,669.71677)">
      <path
         id="path16708"
         d="m 92.513884,378.40104 c -0.7004,-1.66333 -3.96511,-9.29839 -7.25493,-16.96678 l -5.98148,-13.94255 0,-32.18969 0,-32.1897 -4.999388,0 -4.999392,0 -14.15247,12.04438 c -13.660142,11.62539 -16.88466,13.59762 -17.4481,10.67192 -0.21094,-1.09533 73.303806,-64.33515 126.648016,-108.94682 5.60297,-4.68575 8.57933,-5.57393 8.57933,-2.56018 0,0.69207 -6.04961,6.3294 -13.44357,12.52741 -7.39397,6.19801 -24.34346,20.47283 -37.66555,31.72182 l -24.221976,20.45272 -0.28561,60.89126 c -0.26916,57.38734 -0.37812,60.90908 -1.89352,61.20086 -1.10664,0.21307 -2.00492,-0.63324 -2.88136,-2.71465 z"
         style="fill:#000000;fill-opacity:1;stroke:#d8d8d8;stroke-width:2;stroke-linecap:butt;stroke-linejoin:miter;stroke-miterlimit:4;stroke-dasharray:none;stroke-opacity:1"
         inkscape:connector-curvature="0" />
      <path
         id="path16706"
         d="m 92.912624,325.38127 0,-42.26895 -4.54505,0 -4.54505,0 0,31.80755 0,31.80755 4.3178,10.44199 c 2.37479,5.74311 4.42006,10.45074 4.54505,10.46141 0.12499,0.0107 0.22725,-19.00163 0.22725,-42.24955 z"
         style="fill:#000000;fill-opacity:1;stroke:#d8d8d8;stroke-width:2;stroke-linecap:butt;stroke-linejoin:miter;stroke-miterlimit:4;stroke-dasharray:none;stroke-opacity:1"
         inkscape:connector-curvature="0" />
      <path
         id="path16704"
         d="m 79.277474,277.17178 c 0,-1.11382 -0.36696,-1.1991 -1.81802,-0.42252 -0.99991,0.53513 -1.81801,1.1631 -1.81801,1.39549 0,0.23239 0.8181,0.42253 1.81801,0.42253 1.02853,0 1.81802,-0.60601 1.81802,-1.3955 z"
         style="fill:#000000;fill-opacity:1;stroke:#d8d8d8;stroke-width:2;stroke-linecap:butt;stroke-linejoin:miter;stroke-miterlimit:4;stroke-dasharray:none;stroke-opacity:1"
         inkscape:connector-curvature="0" />
      <path
         id="path16702"
         d="m 92.912624,271.21055 0,-7.35672 -4.54505,3.80533 c -4.02916,3.3734 -4.54505,4.20843 -4.54505,7.35672 l 0,3.5514 4.54505,0 4.54505,0 0,-7.35673 z"
         style="fill:#000000;fill-opacity:1;stroke:#d8d8d8;stroke-width:2;stroke-linecap:butt;stroke-linejoin:miter;stroke-miterlimit:4;stroke-dasharray:none;stroke-opacity:1"
         inkscape:connector-curvature="0" />
    </g>
    <g
       id="g16722"
       style="fill:#000000;fill-opacity:1;stroke:#d8d8d8;stroke-width:2;stroke-linecap:butt;stroke-linejoin:miter;stroke-miterlimit:4;stroke-dasharray:none;stroke-opacity:1"
       transform="matrix(1,0,0,0.99999895,-36.677496,669.71677)">
      <g
         id="g16861"
         transform="translate(-1.7857143,0)"
         style="stroke:#d8d8d8;stroke-opacity:1">
        <path
           inkscape:connector-curvature="0"
           style="fill:#000000;fill-opacity:1;stroke:#d8d8d8;stroke-width:2;stroke-linecap:butt;stroke-linejoin:miter;stroke-miterlimit:4;stroke-dasharray:none;stroke-opacity:1"
           d="m 147.05445,378.40104 c -0.70039,-1.66333 -3.96511,-9.29839 -7.25492,-16.96678 l -5.98148,-13.94255 0,-32.14631 0,-32.14633 -5.68131,-0.27062 c -4.96314,-0.23642 -5.68131,-0.49793 -5.68131,-2.06876 0,-2.39778 26.22135,-24.53126 28.17419,-23.78188 1.08542,0.41651 1.36863,2.30531 1.36863,9.12783 l 0,8.60265 4.50847,-3.03398 c 8.08966,-5.44393 15.88934,-5.01121 22.66729,1.25758 8.17627,7.56208 6.65127,21.04149 -2.69744,23.84243 -5.62982,1.68673 -9.40603,-0.62573 -13.56669,-8.30794 -3.09163,-5.70837 -3.33043,-5.91801 -7.04799,-6.1877 l -3.84794,-0.27913 -0.2351,49.35332 c -0.22092,46.37463 -0.33215,49.37199 -1.84303,49.66285 -1.10663,0.21305 -2.00494,-0.6333 -2.88137,-2.71468 z"
           id="path16700" />
        <path
           inkscape:connector-curvature="0"
           style="fill:#000000;fill-opacity:1;stroke:#d8d8d8;stroke-width:2;stroke-linecap:butt;stroke-linejoin:miter;stroke-miterlimit:4;stroke-dasharray:none;stroke-opacity:1"
           d="m 147.4532,325.38127 0,-42.26895 -4.54505,0 -4.54505,0 0,31.80755 0,31.80755 4.3178,10.44199 c 2.37478,5.74311 4.42006,10.45074 4.54505,10.46141 0.12498,0.0107 0.22725,-19.00163 0.22725,-42.24955 z"
           id="path16698" />
        <path
           inkscape:connector-curvature="0"
           style="fill:#000000;fill-opacity:1;stroke:#d8d8d8;stroke-width:2;stroke-linecap:butt;stroke-linejoin:miter;stroke-miterlimit:4;stroke-dasharray:none;stroke-opacity:1"
           d="m 178.73323,290.31465 c 3.70455,-4.4026 3.23987,-8.37301 -1.53929,-13.15218 -5.9458,-5.94579 -12.98605,-6.37344 -19.63697,-1.19282 -2.06476,1.60831 -2.07889,1.68862 -0.29699,1.68862 2.82695,0 7.07804,4.06568 8.78822,8.40495 2.89627,7.34875 8.49882,9.22646 12.68503,4.25143 z"
           id="path16696" />
        <path
           inkscape:connector-curvature="0"
           style="fill:#000000;fill-opacity:1;stroke:#d8d8d8;stroke-width:2;stroke-linecap:butt;stroke-linejoin:miter;stroke-miterlimit:4;stroke-dasharray:none;stroke-opacity:1"
           d="m 133.81805,277.17178 c 0,-1.11382 -0.36696,-1.1991 -1.81802,-0.42252 -0.99991,0.53513 -1.81802,1.1631 -1.81802,1.39549 0,0.23239 0.81811,0.42253 1.81802,0.42253 1.02853,0 1.81802,-0.60601 1.81802,-1.3955 z"
           id="path16694" />
        <path
           inkscape:connector-curvature="0"
           style="fill:#000000;fill-opacity:1;stroke:#d8d8d8;stroke-width:2;stroke-linecap:butt;stroke-linejoin:miter;stroke-miterlimit:4;stroke-dasharray:none;stroke-opacity:1"
           d="m 147.4532,271.21055 0,-7.35672 -4.54505,3.80533 c -4.02916,3.3734 -4.54505,4.20843 -4.54505,7.35672 l 0,3.5514 4.54505,0 4.54505,0 0,-7.35673 z"
           id="path16692" />
      </g>
    </g>
    <g
       id="g16852"
       transform="matrix(1.0000004,0,0,0.99999895,-52.886369,670.22184)"
       style="stroke:#d8d8d8;stroke-opacity:1">
      <path
         sodipodi:nodetypes="cscccsssscsssscccccsssc"
         id="path16682"
         d="m 277.2823,378.40104 c -0.7004,-1.66333 -3.96511,-9.29839 -7.25493,-16.96678 l -5.98147,-13.94255 0,-47.14497 0,-82.19169 -5.68131,-0.27063 c -4.96315,-0.23642 -5.68131,-0.49793 -5.68131,-2.06876 0,-2.39778 26.22134,-24.53153 28.17419,-23.78215 1.17455,0.45071 1.36862,4.20099 1.36862,26.44537 l 0,60.96664 13.62957,-11.44664 c 8.83802,-7.4225 14.11312,-11.26107 15.00503,-10.91881 1.2124,0.46524 1.34775,7.83106 1.14183,62.1393 -0.28062,74.00849 0.40513,71.16068 -10.82129,44.93937 l -7.13801,-16.67213 0,-32.10958 0,-32.10958 -5.90277,-0.30481 -5.90277,0.0523 -0.23304,48.71703 c -0.22056,46.10858 -0.33022,49.09289 -1.84097,49.38373 -1.10663,0.21305 -2.00494,-0.6333 -2.88137,-2.71468 z"
         style="fill:#000000;fill-opacity:1;stroke:#d8d8d8;stroke-width:2;stroke-linecap:butt;stroke-linejoin:miter;stroke-miterlimit:4;stroke-dasharray:none;stroke-opacity:1"
         inkscape:connector-curvature="0" />
      <path
         id="path16680"
         d="m 277.68104,310.38261 0,-92.3144 -4.54505,0 -4.54504,0 0,81.853 0,46.80621 4.31779,10.44199 c 2.37479,5.74311 4.42006,10.45074 4.54505,10.46141 0.12499,0.0107 0.22725,-25.75102 0.22725,-57.24821 z"
         style="fill:#000000;fill-opacity:1;stroke:#d8d8d8;stroke-width:2;stroke-linecap:butt;stroke-linejoin:miter;stroke-miterlimit:4;stroke-dasharray:none;stroke-opacity:1"
         inkscape:connector-curvature="0"
         sodipodi:nodetypes="scccccscs" />
      <path
         id="path16678"
         d="m 307.67836,325.38127 0,-42.26895 -4.54505,0 -4.54505,0 0,31.80755 0,31.80755 4.3178,10.44199 c 2.37479,5.74311 4.42006,10.45074 4.54505,10.46141 0.12499,0.0107 0.22725,-19.00163 0.22725,-42.24955 z"
         style="fill:#000000;fill-opacity:1;stroke:#d8d8d8;stroke-width:2;stroke-linecap:butt;stroke-linejoin:miter;stroke-miterlimit:4;stroke-dasharray:none;stroke-opacity:1"
         inkscape:connector-curvature="0" />
      <path
         id="path16676"
         d="m 294.04322,277.17178 c 0,-1.11382 -0.36697,-1.1991 -1.81802,-0.42252 -0.99991,0.53513 -1.81802,1.1631 -1.81802,1.39549 0,0.23239 0.81811,0.42253 1.81802,0.42253 1.02852,0 1.81802,-0.60601 1.81802,-1.3955 z"
         style="fill:#000000;fill-opacity:1;stroke:#d8d8d8;stroke-width:2;stroke-linecap:butt;stroke-linejoin:miter;stroke-miterlimit:4;stroke-dasharray:none;stroke-opacity:1"
         inkscape:connector-curvature="0" />
      <path
         id="path16674"
         d="m 307.67836,271.21055 0,-7.35672 -4.54505,3.80533 c -4.02916,3.3734 -4.54505,4.20843 -4.54505,7.35672 l 0,3.5514 4.54505,0 4.54505,0 0,-7.35673 z"
         style="fill:#000000;fill-opacity:1;stroke:#d8d8d8;stroke-width:2;stroke-linecap:butt;stroke-linejoin:miter;stroke-miterlimit:4;stroke-dasharray:none;stroke-opacity:1"
         inkscape:connector-curvature="0" />
      <path
         id="path16672"
         d="m 264.0459,212.12772 c 0,-1.11381 -0.36697,-1.1991 -1.81802,-0.42252 -0.99991,0.53513 -1.81802,1.16311 -1.81802,1.3955 0,0.23238 0.81811,0.42252 1.81802,0.42252 1.02852,0 1.81802,-0.60601 1.81802,-1.3955 z"
         style="fill:#000000;fill-opacity:1;stroke:#d8d8d8;stroke-width:2;stroke-linecap:butt;stroke-linejoin:miter;stroke-miterlimit:4;stroke-dasharray:none;stroke-opacity:1"
         inkscape:connector-curvature="0"
         sodipodi:nodetypes="sssss" />
      <path
         id="path16670"
         d="m 277.68104,206.16649 0,-7.35673 -4.54505,3.80533 c -4.02915,3.3734 -4.54504,4.20844 -4.54504,7.35672 l 0,3.5514 4.54504,0 4.54505,0 0,-7.35672 z"
         style="fill:#000000;fill-opacity:1;stroke:#d8d8d8;stroke-width:2;stroke-linecap:butt;stroke-linejoin:miter;stroke-miterlimit:4;stroke-dasharray:none;stroke-opacity:1"
         inkscape:connector-curvature="0" />
    </g>
    <g
       id="g16760"
       style="fill:#000000;fill-opacity:1;stroke:#d8d8d8;stroke-width:2;stroke-linecap:butt;stroke-linejoin:miter;stroke-miterlimit:4;stroke-dasharray:none;stroke-opacity:1"
       transform="matrix(1.0000023,0,0,1.0000009,-60.951232,669.71564)">
      <g
         id="g16837"
         transform="translate(-1.4285714,0)"
         style="fill:#000000;fill-opacity:1;stroke:#d8d8d8;stroke-opacity:1">
        <path
           inkscape:connector-curvature="0"
           style="fill:#000000;fill-opacity:1;stroke:#d8d8d8;stroke-width:2;stroke-linecap:butt;stroke-linejoin:miter;stroke-miterlimit:4;stroke-dasharray:none;stroke-opacity:1"
           d="m 494.43119,380.65394 c -2.47846,-4.18847 -13.83292,-32.56564 -14.22324,-35.54687 l -0.51172,-3.90844 -4.09055,3.83022 c -6.38034,5.9743 -12.70822,8.5411 -20.90722,8.48066 -8.54383,-0.063 -13.62049,-2.20329 -20.3724,-8.58896 -5.36212,-5.07127 -10.59374,-14.45789 -12.41011,-22.26631 -1.44367,-6.20622 -1.44714,-18.93311 -0.006,-24.99776 4.3106,-18.15018 17.58909,-31.05113 32.10032,-31.18766 8.05667,-0.0758 14.24669,2.39602 20.75943,8.28972 l 5.38184,4.87029 0,-11.01292 c 0,-8.88736 0.2598,-11.11261 1.3461,-11.52946 0.84953,-0.326 6.04705,3.40115 14.08965,10.10369 11.04406,9.20427 12.74311,10.97367 12.74311,13.2712 0,2.6068 -0.0832,2.65098 -4.99165,2.65098 l -4.99167,0 -0.23514,48.84693 c -0.21489,44.63739 -0.36494,48.87191 -1.74116,49.13685 -0.82831,0.15946 -1.70096,-0.0395 -1.93922,-0.44216 z"
           id="path16668" />
        <path
           inkscape:connector-curvature="0"
           style="fill:#000000;fill-opacity:1;stroke:#d8d8d8;stroke-width:2;stroke-linecap:butt;stroke-linejoin:miter;stroke-miterlimit:4;stroke-dasharray:none;stroke-opacity:1"
           d="m 493.78588,325.38127 0,-42.26895 -4.54505,0 -4.54505,0 0,31.80755 0,31.80755 4.3178,10.44199 c 2.37478,5.74311 4.42006,10.45074 4.54504,10.46141 0.12499,0.0107 0.22726,-19.00163 0.22726,-42.24955 z"
           id="path16666" />
        <path
           inkscape:connector-curvature="0"
           style="fill:#000000;fill-opacity:1;stroke:#d8d8d8;stroke-width:2;stroke-linecap:butt;stroke-linejoin:miter;stroke-miterlimit:4;stroke-dasharray:none;stroke-opacity:1"
           d="m 446.61712,345.35421 c -6.2399,-7.10685 -9.5041,-17.14591 -9.44985,-29.06303 0.0205,-4.4996 0.51026,-10.1781 1.08838,-12.6189 2.45855,-10.3798 9.84703,-20.69032 17.04751,-23.78957 4.85306,-2.08887 12.06192,-1.98461 16.55717,0.23946 l 3.66765,1.81461 -1.84047,-2.33978 c -4.67335,-5.94119 -15.16181,-10.00995 -22.33899,-8.6659 -5.57038,1.04317 -8.75533,2.70971 -13.73513,7.18697 -12.84925,11.55259 -16.49389,35.56078 -8.00064,52.70245 3.52063,7.10558 8.86383,13.17438 13.97575,15.87362 5.14784,2.71822 6.18776,2.25813 3.02862,-1.33993 z"
           id="path16664" />
        <path
           inkscape:connector-curvature="0"
           id="path16662"
           d="m 464.96996,347.09019 c 5.14963,-2.60359 8.77241,-5.8057 12.01364,-10.61866 l 3.16713,-4.70292 0,-19.45845 0,-19.45844 -4.31939,-4.3194 c -7.04247,-7.04247 -14.65411,-7.94014 -22.02877,-2.59797 -17.2262,12.4786 -16.39758,49.86018 1.3504,60.92043 3.35186,2.08883 6.02437,2.15292 9.81699,0.23541 z"
           style="fill:#26272a;fill-opacity:1;stroke:#d8d8d8;stroke-width:2;stroke-linecap:butt;stroke-linejoin:miter;stroke-miterlimit:4;stroke-dasharray:none;stroke-opacity:1" />
        <path
           inkscape:connector-curvature="0"
           style="fill:#000000;fill-opacity:1;stroke:#d8d8d8;stroke-width:2;stroke-linecap:butt;stroke-linejoin:miter;stroke-miterlimit:4;stroke-dasharray:none;stroke-opacity:1"
           d="m 493.78588,275.01588 c 0,-3.14829 -0.51589,-3.98332 -4.54505,-7.35672 l -4.54505,-3.80533 0,7.35672 0,7.35673 4.54505,0 4.54505,0 0,-3.5514 z"
           id="path16660" />
        <path
           inkscape:connector-curvature="0"
           style="fill:#000000;fill-opacity:1;stroke:#d8d8d8;stroke-width:2;stroke-linecap:butt;stroke-linejoin:miter;stroke-miterlimit:4;stroke-dasharray:none;stroke-opacity:1"
           d="m 501.96696,278.14475 c 0,-0.23239 -0.81811,-0.86036 -1.81802,-1.39549 -1.45105,-0.77658 -1.81802,-0.6913 -1.81802,0.42252 0,0.78949 0.7895,1.3955 1.81802,1.3955 0.99991,0 1.81802,-0.19014 1.81802,-0.42253 z"
           id="path16658" />
      </g>
    </g>
    <g
       id="g16768"
       style="fill:#000000;fill-opacity:1;stroke:#d8d8d8;stroke-width:2;stroke-linecap:butt;stroke-linejoin:miter;stroke-miterlimit:4;stroke-dasharray:none;stroke-opacity:1"
       transform="matrix(1.0000004,0,0,0.99999895,-64.76046,669.71678)">
      <path
         id="path16656"
         d="m 547.92771,378.40104 c -0.70039,-1.66333 -3.96511,-9.29839 -7.25492,-16.96678 l -5.98148,-13.94255 0,-32.14631 0,-32.14633 -5.68131,-0.27062 c -4.96315,-0.23642 -5.68131,-0.49793 -5.68131,-2.06876 0,-2.39778 26.22135,-24.53126 28.17419,-23.78188 1.08541,0.41651 1.36862,2.30531 1.36862,9.12783 l 0,8.60265 4.50848,-3.03398 c 8.08966,-5.44393 15.88934,-5.01121 22.66729,1.25758 8.17626,7.56208 6.65126,21.04149 -2.69745,23.84243 -5.62981,1.68673 -9.40603,-0.62573 -13.56668,-8.30794 -3.09164,-5.70837 -3.33043,-5.91801 -7.04799,-6.1877 l -3.84794,-0.27913 -0.2351,49.35332 c -0.22092,46.37463 -0.33216,49.37199 -1.84303,49.66285 -1.10663,0.21305 -2.00494,-0.6333 -2.88137,-2.71468 z"
         style="fill:#000000;fill-opacity:1;stroke:#d8d8d8;stroke-width:2;stroke-linecap:butt;stroke-linejoin:miter;stroke-miterlimit:4;stroke-dasharray:none;stroke-opacity:1"
         inkscape:connector-curvature="0" />
      <path
         id="path16654"
         d="m 548.32646,325.38127 0,-42.26895 -4.54505,0 -4.54505,0 0,31.80755 0,31.80755 4.31779,10.44199 c 2.37479,5.74311 4.42006,10.45074 4.54505,10.46141 0.12499,0.0107 0.22726,-19.00163 0.22726,-42.24955 z"
         style="fill:#000000;fill-opacity:1;stroke:#d8d8d8;stroke-width:2;stroke-linecap:butt;stroke-linejoin:miter;stroke-miterlimit:4;stroke-dasharray:none;stroke-opacity:1"
         inkscape:connector-curvature="0" />
      <path
         id="path16652"
         d="m 579.60649,290.31465 c 3.70455,-4.4026 3.23987,-8.37301 -1.53929,-13.15218 -5.9458,-5.94579 -12.98605,-6.37344 -19.63697,-1.19282 -2.06477,1.60831 -2.07889,1.68862 -0.297,1.68862 2.82696,0 7.07804,4.06568 8.78823,8.40495 2.89627,7.34875 8.49882,9.22646 12.68503,4.25143 z"
         style="fill:#000000;fill-opacity:1;stroke:#d8d8d8;stroke-width:2;stroke-linecap:butt;stroke-linejoin:miter;stroke-miterlimit:4;stroke-dasharray:none;stroke-opacity:1"
         inkscape:connector-curvature="0" />
      <path
         id="path16650"
         d="m 534.69131,277.17178 c 0,-1.11382 -0.36697,-1.1991 -1.81802,-0.42252 -0.99991,0.53513 -1.81802,1.1631 -1.81802,1.39549 0,0.23239 0.81811,0.42253 1.81802,0.42253 1.02853,0 1.81802,-0.60601 1.81802,-1.3955 z"
         style="fill:#000000;fill-opacity:1;stroke:#d8d8d8;stroke-width:2;stroke-linecap:butt;stroke-linejoin:miter;stroke-miterlimit:4;stroke-dasharray:none;stroke-opacity:1"
         inkscape:connector-curvature="0" />
      <path
         id="path16648"
         d="m 548.32646,271.21055 0,-7.35672 -4.54505,3.80533 c -4.02916,3.3734 -4.54505,4.20843 -4.54505,7.35672 l 0,3.5514 4.54505,0 4.54505,0 0,-7.35673 z"
         style="fill:#000000;fill-opacity:1;stroke:#d8d8d8;stroke-width:2;stroke-linecap:butt;stroke-linejoin:miter;stroke-miterlimit:4;stroke-dasharray:none;stroke-opacity:1"
         inkscape:connector-curvature="0" />
    </g>
    <g
       id="g16781"
       style="fill:#000000;fill-opacity:1;stroke:#d8d8d8;stroke-width:2;stroke-linecap:butt;stroke-linejoin:miter;stroke-miterlimit:4;stroke-dasharray:none;stroke-opacity:1"
       transform="matrix(1.0000098,0,0,0.99999895,-63.136223,669.71678)">
      <path
         id="path16646"
         d="m 617.01244,378.40104 c -0.70039,-1.66333 -3.96511,-9.29839 -7.25492,-16.96678 l -5.98148,-13.94255 0,-32.14631 0,-32.14633 -5.68131,-0.27062 c -4.96314,-0.23642 -5.68131,-0.49793 -5.68131,-2.06876 0,-2.39778 26.22135,-24.53126 28.17419,-23.78188 1.10903,0.42557 1.36863,2.50777 1.36863,10.97755 l 0,10.45238 10.22636,0.25702 c 8.36986,0.21036 10.22635,0.50455 10.22635,1.62054 0,1.1159 -1.85559,1.41017 -10.21854,1.62046 l -10.21855,0.25695 -0.23506,49.27173 c -0.22088,46.29662 -0.33216,49.29042 -1.84299,49.58128 -1.10663,0.21305 -2.00494,-0.6333 -2.88137,-2.71468 z"
         style="fill:#000000;fill-opacity:1;stroke:#d8d8d8;stroke-width:2;stroke-linecap:butt;stroke-linejoin:miter;stroke-miterlimit:4;stroke-dasharray:none;stroke-opacity:1"
         inkscape:connector-curvature="0" />
      <path
         id="path16644"
         d="m 617.41119,325.38127 0,-42.26895 -4.54505,0 -4.54505,0 0,31.80755 0,31.80755 4.3178,10.44199 c 2.37479,5.74311 4.42006,10.45074 4.54505,10.46141 0.12499,0.0107 0.22725,-19.00163 0.22725,-42.24955 z"
         style="fill:#000000;fill-opacity:1;stroke:#d8d8d8;stroke-width:2;stroke-linecap:butt;stroke-linejoin:miter;stroke-miterlimit:4;stroke-dasharray:none;stroke-opacity:1"
         inkscape:connector-curvature="0" />
      <path
         id="path16642"
         d="m 603.77604,277.17178 c 0,-1.11382 -0.36696,-1.1991 -1.81801,-0.42252 -0.99992,0.53513 -1.81802,1.1631 -1.81802,1.39549 0,0.23239 0.8181,0.42253 1.81802,0.42253 1.02852,0 1.81801,-0.60601 1.81801,-1.3955 z"
         style="fill:#000000;fill-opacity:1;stroke:#d8d8d8;stroke-width:2;stroke-linecap:butt;stroke-linejoin:miter;stroke-miterlimit:4;stroke-dasharray:none;stroke-opacity:1"
         inkscape:connector-curvature="0" />
      <path
         id="path16640"
         d="m 617.41119,271.21055 0,-7.35672 -4.54505,3.80533 c -4.02916,3.3734 -4.54505,4.20843 -4.54505,7.35672 l 0,3.5514 4.54505,0 4.54505,0 0,-7.35673 z"
         style="fill:#000000;fill-opacity:1;stroke:#d8d8d8;stroke-width:2;stroke-linecap:butt;stroke-linejoin:miter;stroke-miterlimit:4;stroke-dasharray:none;stroke-opacity:1"
         inkscape:connector-curvature="0" />
    </g>
    <g
       id="g16735"
       style="fill:#000000;fill-opacity:1;stroke:#d8d8d8;stroke-width:2;stroke-linecap:butt;stroke-linejoin:miter;stroke-miterlimit:4;stroke-dasharray:none;stroke-opacity:1"
       transform="matrix(1,0,0,0.99999895,-47.511261,669.71677)">
      <g
         id="g16829"
         transform="translate(5.555839,0)"
         style="fill:#000000;fill-opacity:1;stroke:#d8d8d8;stroke-linecap:butt;stroke-linejoin:miter;stroke-opacity:1">
        <path
           inkscape:connector-curvature="0"
           style="fill:#000000;fill-opacity:1;stroke:#d8d8d8;stroke-width:2;stroke-linecap:butt;stroke-linejoin:miter;stroke-miterlimit:4;stroke-dasharray:none;stroke-opacity:1"
           d="m 221.59324,378.40104 c -0.70039,-1.66333 -3.96511,-9.29839 -7.25492,-16.96678 l -5.98148,-13.94255 0,-32.14631 0,-32.14633 -5.68131,-0.27062 c -4.96314,-0.23642 -5.68131,-0.49793 -5.68131,-2.06876 0,-2.40458 26.22173,-24.53111 28.18056,-23.77944 1.21179,0.465 1.34725,7.83866 1.14137,62.12674 -0.2203,58.08789 -0.32527,61.61676 -1.84154,61.9087 -1.10664,0.21307 -2.00493,-0.63324 -2.88137,-2.71465 z"
           id="path16690" />
        <path
           inkscape:connector-curvature="0"
           style="fill:#000000;fill-opacity:1;stroke:#d8d8d8;stroke-width:2;stroke-linecap:butt;stroke-linejoin:miter;stroke-miterlimit:4;stroke-dasharray:none;stroke-opacity:1"
           d="m 221.99199,325.38127 0,-42.26895 -4.54505,0 -4.54505,0 0,31.80755 0,31.80755 4.3178,10.44199 c 2.37479,5.74311 4.42006,10.45074 4.54505,10.46141 0.12499,0.0107 0.22725,-19.00163 0.22725,-42.24955 z"
           id="path16688" />
        <path
           inkscape:connector-curvature="0"
           style="fill:#000000;fill-opacity:1;stroke:#d8d8d8;stroke-width:2;stroke-linecap:butt;stroke-linejoin:miter;stroke-miterlimit:4;stroke-dasharray:none;stroke-opacity:1"
           d="m 208.35684,277.17178 c 0,-1.11382 -0.36696,-1.1991 -1.81801,-0.42252 -0.99992,0.53513 -1.81802,1.1631 -1.81802,1.39549 0,0.23239 0.8181,0.42253 1.81802,0.42253 1.02852,0 1.81801,-0.60601 1.81801,-1.3955 z"
           id="path16686" />
        <path
           inkscape:connector-curvature="0"
           style="fill:#000000;fill-opacity:1;stroke:#d8d8d8;stroke-width:2;stroke-linecap:butt;stroke-linejoin:miter;stroke-miterlimit:4;stroke-dasharray:none;stroke-opacity:1"
           d="m 221.99199,271.21055 0,-7.35672 -4.54505,3.80533 c -4.02916,3.3734 -4.54505,4.20843 -4.54505,7.35672 l 0,3.5514 4.54505,0 4.54505,0 0,-7.35673 z"
           id="path16684" />
        <path
           inkscape:connector-curvature="0"
           style="fill:#000000;fill-opacity:1;stroke:#d8d8d8;stroke-width:2;stroke-linecap:butt;stroke-linejoin:miter;stroke-miterlimit:4;stroke-dasharray:none;stroke-opacity:1"
           d="m 213.12646,252.47314 c -3.20378,-0.61682 -8.09995,-5.83254 -9.19368,-9.79371 -2.76597,-10.01749 6.69623,-19.4797 16.71373,-16.71373 10.11205,2.79207 13.56346,15.72811 6.09676,22.851 -3.96291,3.78045 -7.72525,4.79072 -13.61681,3.65644 z"
           id="path16638" />
        <path
           inkscape:connector-curvature="0"
           style="fill:#000000;fill-opacity:1;stroke:#d8d8d8;stroke-width:2;stroke-linecap:butt;stroke-linejoin:miter;stroke-miterlimit:4;stroke-dasharray:none;stroke-opacity:1"
           d="m 221.86016,247.27462 c 4.96013,-2.56499 6.14507,-9.54646 2.37978,-14.02125 -4.51734,-5.36856 -12.84443,-4.18902 -15.51285,2.1974 -1.79505,4.29616 -0.96123,7.91525 2.49335,10.82209 3.08291,2.59409 6.87082,2.95073 10.63972,1.00176 z"
           id="path16625" />
      </g>
    </g>
  </g>
  <g
     inkscape:groupmode="layer"
     id="layer8"
     inkscape:label="Guide"
     sodipodi:insensitive="true"
     style="display:none"
     transform="translate(0,-861.20317)">
    <path
       style="fill:none;fill-rule:evenodd;stroke:#ff0000;stroke-width:1px;stroke-linecap:butt;stroke-linejoin:miter;stroke-opacity:1"
       d="m 693.9748,538.69088 -577.30218,0"
       id="path15120"
       inkscape:connector-curvature="0" />
    <path
       inkscape:connector-curvature="0"
       id="path15122"
       d="m 693.9748,506.8622 -577.30218,0"
       style="fill:none;fill-rule:evenodd;stroke:#ff0000;stroke-width:1px;stroke-linecap:butt;stroke-linejoin:miter;stroke-opacity:1" />
    <path
       inkscape:connector-curvature="0"
       id="path15124"
       d="m 693.9748,423.53349 -577.30218,0"
       style="fill:none;fill-rule:evenodd;stroke:#ff0000;stroke-width:1px;stroke-linecap:butt;stroke-linejoin:miter;stroke-opacity:1" />
    <path
       style="fill:none;fill-rule:evenodd;stroke:#ff0000;stroke-width:1px;stroke-linecap:butt;stroke-linejoin:miter;stroke-opacity:1"
       d="m 693.9748,441.9599 -577.30218,0"
       id="path15126"
       inkscape:connector-curvature="0" />
    <path
       style="fill:none;fill-rule:evenodd;stroke:#ff0000;stroke-width:1px;stroke-linecap:butt;stroke-linejoin:miter;stroke-opacity:1"
       d="m 693.9748,405.1062 -577.30218,0"
       id="path15130"
       inkscape:connector-curvature="0" />
    <path
       inkscape:connector-curvature="0"
       id="path15132"
       d="m 693.9748,386.6792 -577.30218,0"
       style="fill:none;fill-rule:evenodd;stroke:#ff0000;stroke-width:1px;stroke-linecap:butt;stroke-linejoin:miter;stroke-opacity:1" />
    <path
       style="fill:none;fill-rule:evenodd;stroke:#00ff32;stroke-width:1px;stroke-linecap:butt;stroke-linejoin:miter;stroke-opacity:1"
       d="m 693.9748,432.7467 -577.30218,0"
       id="path15134"
       inkscape:connector-curvature="0" />
    <path
       style="fill:none;fill-rule:evenodd;stroke:#00ff20;stroke-width:1px;stroke-linecap:butt;stroke-linejoin:miter;stroke-opacity:1"
       d="m 693.9748,516.0762 -577.30218,0"
       id="path15136"
       inkscape:connector-curvature="0" />
    <path
       inkscape:connector-curvature="0"
       id="path15140"
       d="m 693.9748,460.3872 -577.30218,0"
       style="fill:none;fill-rule:evenodd;stroke:#00b9ff;stroke-width:1px;stroke-linecap:butt;stroke-linejoin:miter;stroke-opacity:1" />
    <path
       inkscape:connector-curvature="0"
       id="path15142"
       d="m 693.9748,473.9112 -577.30218,0"
       style="fill:none;fill-rule:evenodd;stroke:#00ff32;stroke-width:1px;stroke-linecap:butt;stroke-linejoin:miter;stroke-opacity:1" />
  </g>
  <g
     inkscape:groupmode="layer"
     id="layer7"
     inkscape:label="Vector"
     transform="translate(0,-861.20317)"
     style="display:none" />
  <g
     inkscape:groupmode="layer"
     id="layer9"
     inkscape:label="og logo bg"
     style="display:inline"
     transform="translate(0,-54.945012)">
    <g
       style="display:inline"
       transform="translate(62.628447,-806.87519)"
       id="g4397" />
    <path
       style="font-style:normal;font-variant:normal;font-weight:normal;font-stretch:normal;font-size:medium;line-height:125%;font-family:'Segoe UI Symbol';-inkscape-font-specification:'Segoe UI Symbol';letter-spacing:0px;word-spacing:0px;display:inline;fill:#d8d8d8;fill-opacity:1;stroke:#d8d8d8;stroke-width:6.5;stroke-linecap:butt;stroke-linejoin:miter;stroke-miterlimit:4;stroke-dasharray:none;stroke-opacity:1"
       d="M 407.86523 3.25 C 406.31465 3.25 404.80379 3.5389975 403.33203 4.1171875 C 401.88656 4.6690975 400.59884 5.5233175 399.46875 6.6796875 C 398.36493 7.8097775 397.47238 9.2420025 396.78906 10.976562 C 396.13204 12.711123 395.80273 14.761643 395.80273 17.126953 C 395.80273 19.755083 396.22345 22.211577 397.06445 24.498047 C 397.90545 26.758237 399.00838 28.887396 400.375 30.884766 C 401.74164 32.882136 403.28001 34.760644 404.98828 36.521484 C 406.72284 38.256044 408.46963 39.924184 410.23047 41.527344 C 411.99133 43.104214 413.68699 44.629814 415.31641 46.101562 C 416.94586 47.547032 418.35251 48.966465 419.53516 50.359375 L 419.89062 50.359375 C 421.07328 48.966465 422.47798 47.547033 424.10742 46.101562 C 425.76313 44.629814 427.47157 43.104214 429.23242 41.527344 C 430.99326 39.924184 432.72728 38.256044 434.43555 36.521484 C 436.17011 34.760644 437.72127 32.882136 439.08789 30.884766 C 440.45452 28.887396 441.55939 26.758237 442.40039 24.498047 C 443.2414 22.211577 443.66016 19.755083 443.66016 17.126953 C 443.66016 14.761643 443.32004 12.711123 442.63672 10.976562 C 441.97968 9.2420025 441.08517 7.8097775 439.95508 6.6796875 C 438.85127 5.5233175 437.56355 4.6690975 436.0918 4.1171875 C 434.64633 3.5389975 433.14826 3.25 431.59766 3.25 C 430.09963 3.25 428.74605 3.4475769 427.53711 3.8417969 C 426.35446 4.2360069 425.27711 4.7737213 424.30469 5.4570312 C 423.35857 6.1140612 422.51713 6.8768606 421.78125 7.7441406 C 421.04538 8.5851406 420.41625 9.4521431 419.89062 10.345703 L 419.53516 10.345703 C 419.00954 9.4521431 418.37846 8.5851406 417.64258 7.7441406 C 416.93299 6.8768606 416.09154 6.1140612 415.11914 5.4570312 C 414.17302 4.7737213 413.09567 4.2360069 411.88672 3.8417969 C 410.70407 3.4475769 409.36327 3.25 407.86523 3.25 z M 407.86523 8.0195312 C 409.36327 8.0195312 410.71684 8.3213113 411.92578 8.9257812 C 413.13472 9.5302513 414.21208 10.331388 415.1582 11.330078 C 416.1306 12.302488 416.98483 13.407368 417.7207 14.642578 C 418.45659 15.877798 419.12795 17.112436 419.73242 18.347656 C 420.31061 17.112436 420.96724 15.877798 421.70312 14.642578 C 422.46529 13.407368 423.3195 12.302488 424.26562 11.330078 C 425.23803 10.331388 426.31539 9.5302513 427.49805 8.9257812 C 428.70699 8.3213113 430.07335 8.0195312 431.59766 8.0195312 C 432.59635 8.0195312 433.5292 8.18959 434.39648 8.53125 C 435.26377 8.8729 436.01378 9.4125675 436.64453 10.148438 C 437.27528 10.884308 437.77464 11.829948 438.14258 12.986328 C 438.51051 14.142698 438.69336 15.523803 438.69336 17.126953 C 438.69336 19.229453 438.35324 21.212155 437.66992 23.078125 C 436.98661 24.944095 436.0921 26.705608 434.98828 28.361328 C 433.91076 30.017048 432.6889 31.580984 431.32227 33.052734 C 429.95565 34.498204 428.56177 35.877346 427.14258 37.191406 C 425.74968 38.479186 424.41084 39.701042 423.12305 40.857422 C 421.83527 41.987512 420.73039 43.052091 419.81055 44.050781 C 418.8907 43.052091 417.775 41.987512 416.46094 40.857422 C 415.17316 39.701042 413.81958 38.479186 412.40039 37.191406 C 410.9812 35.877346 409.57455 34.498204 408.18164 33.052734 C 406.81502 31.580984 405.58037 30.017048 404.47656 28.361328 C 403.37275 26.705608 402.47824 24.944095 401.79492 23.078125 C 401.11161 21.212155 400.76953 19.229453 400.76953 17.126953 C 400.76953 15.523803 400.95433 14.142698 401.32227 12.986328 C 401.69022 11.829948 402.18956 10.884308 402.82031 10.148438 C 403.45106 9.4125675 404.19913 8.8729 405.06641 8.53125 C 405.9337 8.18959 406.86655 8.0195312 407.86523 8.0195312 z "
       transform="translate(0,54.945012)"
       id="path4403" />
  </g>
  <g
     inkscape:groupmode="layer"
     id="layer3"
     inkscape:label="og logo"
     style="display:inline"
     transform="translate(0,-54.945012)">
    <path
       d="m 431.79799,58.194552 c 1.5506,0 3.04863,0.289093 4.4941,0.86728 1.47175,0.551907 2.75953,1.406047 3.86334,2.56242 1.13009,1.130093 2.02366,2.56242 2.6807,4.29698 0.68331,1.73456 1.02497,3.784497 1.02497,6.14981 0,2.628127 -0.4205,5.085423 -1.26151,7.37189 -0.841,2.260187 -1.94481,4.388967 -3.31144,6.38634 -1.36662,1.997373 -2.91722,3.87648 -4.65177,5.63732 -1.70828,1.73456 -3.44285,3.40342 -5.20368,5.00658 -1.76086,1.576873 -3.46914,3.101183 -5.12485,4.572928 -1.62944,1.44547 -3.03549,2.86466 -4.21814,4.25756 l -0.3548,0 c -1.18267,-1.3929 -2.58871,-2.81209 -4.21816,-4.25756 -1.62942,-1.471745 -3.32456,-2.996055 -5.08542,-4.572928 -1.76084,-1.60316 -3.50855,-3.27202 -5.24311,-5.00658 -1.70827,-1.76084 -3.24572,-3.639947 -4.61236,-5.63732 -1.36662,-1.997373 -2.47043,-4.126153 -3.31142,-6.38634 -0.84101,-2.286467 -1.26151,-4.743763 -1.26151,-7.37189 0,-2.365313 0.32852,-4.41525 0.98555,-6.14981 0.68331,-1.73456 1.57688,-3.166887 2.6807,-4.29698 1.13008,-1.156373 2.41786,-2.010513 3.86333,-2.56242 1.47176,-0.578187 2.98292,-0.86728 4.53351,-0.86728 1.49803,0 2.83837,0.19711 4.02102,0.59133 1.20894,0.394213 2.28648,0.932977 3.2326,1.61629 0.9724,0.657033 1.8134,1.41919 2.52299,2.28647 0.73588,0.841 1.36663,1.70828 1.89226,2.60184 l 0.3548,0 c 0.52563,-0.89356 1.15638,-1.76084 1.89225,-2.60184 0.73588,-0.86728 1.57688,-1.629437 2.523,-2.28647 0.97242,-0.683313 2.04995,-1.222077 3.2326,-1.61629 1.20894,-0.39422 2.56242,-0.59133 4.06045,-0.59133 z m -30.82791,13.87649 c 0,2.1025 0.34166,4.086733 1.02497,5.9527 0.68332,1.865967 1.57689,3.62681 2.6807,5.28253 1.10381,1.65572 2.33902,3.219453 3.70565,4.6912 1.3929,1.445467 2.79895,2.82523 4.21814,4.13929 1.41919,1.28778 2.77267,2.50986 4.06045,3.66624 1.31406,1.130093 2.43102,2.194483 3.35088,3.19317 0.91983,-0.998687 2.02363,-2.063077 3.31141,-3.19317 1.28778,-1.15638 2.62813,-2.37846 4.02103,-3.66624 1.41919,-1.31406 2.8121,-2.693823 4.17872,-4.13929 1.36663,-1.471747 2.58871,-3.03548 3.66623,-4.6912 1.10382,-1.65572 1.99738,-3.416563 2.6807,-5.28253 0.68331,-1.865967 1.02497,-3.8502 1.02497,-5.9527 0,-1.603153 -0.18397,-2.982917 -0.5519,-4.13929 -0.36794,-1.15638 -0.86728,-2.102507 -1.49802,-2.83838 -0.63076,-0.735873 -1.37977,-1.274637 -2.24705,-1.61629 -0.86728,-0.34166 -1.80027,-0.51249 -2.79895,-0.51249 -1.52432,0 -2.89094,0.302237 -4.09987,0.90671 -1.18267,0.604467 -2.2602,1.406043 -3.2326,2.40473 -0.94613,0.972407 -1.80027,2.076217 -2.56243,3.31143 -0.73587,1.23522 -1.39291,2.47044 -1.97109,3.70566 -0.60447,-1.23522 -1.27465,-2.47044 -2.01052,-3.70566 -0.73588,-1.235213 -1.59002,-2.339023 -2.56241,-3.31143 -0.94613,-0.998687 -2.02366,-1.800263 -3.2326,-2.40473 -1.20893,-0.604473 -2.56242,-0.90671 -4.06045,-0.90671 -0.99869,0 -1.93167,0.17083 -2.79895,0.51249 -0.86728,0.341653 -1.6163,0.880417 -2.24705,1.61629 -0.63075,0.735873 -1.13009,1.682 -1.49804,2.83838 -0.36794,1.156373 -0.55192,2.536137 -0.55192,4.13929 z"
       style="font-style:normal;font-variant:normal;font-weight:normal;font-stretch:normal;font-size:medium;line-height:125%;font-family:'Segoe UI Symbol';-inkscape-font-specification:'Segoe UI Symbol';letter-spacing:0px;word-spacing:0px;fill:none;fill-opacity:1;stroke:#000000;stroke-width:2.5;stroke-linecap:butt;stroke-linejoin:miter;stroke-miterlimit:4;stroke-dasharray:none;stroke-opacity:1"
       id="path4216"
       inkscape:connector-curvature="0"
       sodipodi:nodetypes="scccscsccccccccscscccsccccccccssssccccccccsscsssccccscssssss" />
  </g>
</svg>
