<svg xmlns="http://www.w3.org/2000/svg" width="580.27899" height="191.159" viewBox="0 0 580.279 191.159"><g stroke="#d8d8d8"><g stroke-width="2.1533637"><path d="M355.84366 358.89639c-6.95044-2.07326-13.27868-6.3609-18.31638-11.74621-9.00539-9.62679-12.96728-19.65642-13.08758-33.13153-.0833-9.32825 1.36139-15.77131 5.29928-23.63425 5.27497-10.53276 14.62313-19.09645 23.86998-21.86687 0 0 2.50762-.95839 3.82547-1.14614 5.99968-.85474 12.19771-.82105 18.18019.14678 1.17885.19071 3.40879 1.1021 3.40879 1.1021 8.9648 2.89844 18.9353 12.00537 23.89024 21.82106 1.48406 2.93991 2.69829 5.59938 2.69829 5.90995 0 .31056-2.09507-1.31899-4.65571-3.62122-4.83799-4.34976-14.68769-9.54688-21.64094-11.41866-11.15249-3.0022-24.25163 3.93528-30.37154 16.08519-1.72325 3.42116-4.23546 11.41606-4.23546 13.84644 0 .21872 13.80559.50537 30.67908.63701 26.55791.2072 30.67907.95826 30.67907 2.13861 0 1.17583-4.18871 2.42443-30.45182 2.35409l-30.45182.45451.32393 3.09702c1.14055 10.90454 10.22971 23.08211 20.04632 26.33878 9.60441 3.18627 23.2193.34727 32.62077-6.80216 3.82094-2.90566 4.59191-3.23517 3.73892-1.59796-4.27394 8.20317-13.96388 16.8932-22.18758 19.89801 0 0-2.36433 1.10975-3.63603 1.32855-6.6445 1.1432-13.76465 1.73411-20.22547-.1931z" transform="matrix(.9173 0 0 .9404 -23.722554 -175.88387)"/><path d="M376.84398 353.99041c7.68876-2.37481 8.32735-3.47876 1.34427-2.32388-13.45938 2.22596-27.03967-5.81462-33.57528-19.87913-10.75679-23.14841 1.4278-50.63631 24.37463-54.98808 5.32036-1.00899 13.03491-.0491 17.69378 2.20168l3.02289 1.46037-3.1621-2.77752c-8.8569-7.77965-24.23641-9.05621-36.22725-3.00698-5.28605 2.66674-13.70133 11.1018-16.44897 16.48761-5.00523 9.81107-6.49099 25.40226-3.39059 35.58031 6.67564 21.91499 26.29795 33.44482 46.36862 27.24562z" transform="matrix(.9173 0 0 .9404 -23.722554 -175.88387)"/></g><g stroke-width="2"><path d="M92.513884 378.40104c-.7004-1.66333-3.96511-9.29839-7.25493-16.96678l-5.98148-13.94255v-64.37939h-9.99878l-14.15247 12.04438c-13.660142 11.62539-16.88466 13.59762-17.4481 10.67192-.21094-1.09533 73.303806-64.33515 126.648016-108.94682 5.60297-4.68575 8.57933-5.57393 8.57933-2.56018 0 .69207-6.04961 6.3294-13.44357 12.52741-7.39397 6.19801-24.34346 20.47283-37.66555 31.72182l-24.221976 20.45272-.28561 60.89126c-.26916 57.38734-.37812 60.90908-1.89352 61.20086-1.10664.21307-2.00492-.63324-2.88136-2.71465z" transform="translate(-36.670073 -191.4864)"/><path d="M92.912624 325.38127v-42.26895h-9.0901v63.6151l4.3178 10.44199c2.37479 5.74311 4.42006 10.45074 4.54505 10.46141.12499.0107.22725-19.00163.22725-42.24955zM79.277474 277.17178c0-1.11382-.36696-1.1991-1.81802-.42252-.99991.53513-1.81801 1.1631-1.81801 1.39549 0 .23239.8181.42253 1.81801.42253 1.02853 0 1.81802-.60601 1.81802-1.3955zM92.912624 271.21055v-7.35672l-4.54505 3.80533c-4.02916 3.3734-4.54505 4.20843-4.54505 7.35672v3.5514h9.0901v-7.35673z" transform="translate(-36.670073 -191.4864)"/></g><g stroke-width="2"><path d="M147.05445 378.40104c-.70039-1.66333-3.96511-9.29839-7.25492-16.96678l-5.98148-13.94255v-64.29264l-5.68131-.27062c-4.96314-.23642-5.68131-.49793-5.68131-2.06876 0-2.39778 26.22135-24.53126 28.17419-23.78188 1.08542.41651 1.36863 2.30531 1.36863 9.12783v8.60265l4.50847-3.03398c8.08966-5.44393 15.88934-5.01121 22.66729 1.25758 8.17627 7.56208 6.65127 21.04149-2.69744 23.84243-5.62982 1.68673-9.40603-.62573-13.56669-8.30794-3.09163-5.70837-3.33043-5.91801-7.04799-6.1877l-3.84794-.27913-.2351 49.35332c-.22092 46.37463-.33215 49.37199-1.84303 49.66285-1.10663.21305-2.00494-.6333-2.88137-2.71468z" transform="translate(-38.4632103 -191.4864)"/><path d="M147.4532 325.38127v-42.26895h-9.0901v63.6151l4.3178 10.44199c2.37478 5.74311 4.42006 10.45074 4.54505 10.46141.12498.0107.22725-19.00163.22725-42.24955zM178.73323 290.31465c3.70455-4.4026 3.23987-8.37301-1.53929-13.15218-5.9458-5.94579-12.98605-6.37344-19.63697-1.19282-2.06476 1.60831-2.07889 1.68862-.29699 1.68862 2.82695 0 7.07804 4.06568 8.78822 8.40495 2.89627 7.34875 8.49882 9.22646 12.68503 4.25143zM133.81805 277.17178c0-1.11382-.36696-1.1991-1.81802-.42252-.99991.53513-1.81802 1.1631-1.81802 1.39549 0 .23239.81811.42253 1.81802.42253 1.02853 0 1.81802-.60601 1.81802-1.3955zM147.4532 271.21055v-7.35672l-4.54505 3.80533c-4.02916 3.3734-4.54505 4.20843-4.54505 7.35672v3.5514h9.0901v-7.35673z" transform="translate(-38.4632103 -191.4864)"/></g><g stroke-width="2"><path d="M277.2823 378.40104c-.7004-1.66333-3.96511-9.29839-7.25493-16.96678l-5.98147-13.94255V218.15505l-5.68131-.27063c-4.96315-.23642-5.68131-.49793-5.68131-2.06876 0-2.39778 26.22134-24.53153 28.17419-23.78215 1.17455.45071 1.36862 4.20099 1.36862 26.44537v60.96664l13.62957-11.44664c8.83802-7.4225 14.11312-11.26107 15.00503-10.91881 1.2124.46524 1.34775 7.83106 1.14183 62.1393-.28062 74.00849.40513 71.16068-10.82129 44.93937l-7.13801-16.67213v-64.21916l-5.90277-.30481-5.90277.0523-.23304 48.71703c-.22056 46.10858-.33022 49.09289-1.84097 49.38373-1.10663.21305-2.00494-.6333-2.88137-2.71468z" transform="translate(-52.886369 -190.98133)"/><path d="M277.68104 310.38261v-92.3144h-9.09009v128.65921l4.31779 10.44199c2.37479 5.74311 4.42006 10.45074 4.54505 10.46141.12499.0107.22725-25.75102.22725-57.24821zM307.67836 325.38127v-42.26895h-9.0901v63.6151l4.3178 10.44199c2.37479 5.74311 4.42006 10.45074 4.54505 10.46141.12499.0107.22725-19.00163.22725-42.24955zM294.04322 277.17178c0-1.11382-.36697-1.1991-1.81802-.42252-.99991.53513-1.81802 1.1631-1.81802 1.39549 0 .23239.81811.42253 1.81802.42253 1.02852 0 1.81802-.60601 1.81802-1.3955zM307.67836 271.21055v-7.35672l-4.54505 3.80533c-4.02916 3.3734-4.54505 4.20843-4.54505 7.35672v3.5514h9.0901v-7.35673zM264.0459 212.12772c0-1.11381-.36697-1.1991-1.81802-.42252-.99991.53513-1.81802 1.16311-1.81802 1.3955 0 .23238.81811.42252 1.81802.42252 1.02852 0 1.81802-.60601 1.81802-1.3955zM277.68104 206.16649v-7.35673l-4.54505 3.80533c-4.02915 3.3734-4.54504 4.20844-4.54504 7.35672v3.5514h9.09009v-7.35672z" transform="translate(-52.886369 -190.98133)"/></g><g stroke-width="2"><path d="M494.43119 380.65394c-2.47846-4.18847-13.83292-32.56564-14.22324-35.54687l-.51172-3.90844-4.09055 3.83022c-6.38034 5.9743-12.70822 8.5411-20.90722 8.48066-8.54383-.063-13.62049-2.20329-20.3724-8.58896-5.36212-5.07127-10.59374-14.45789-12.41011-22.26631-1.44367-6.20622-1.44714-18.93311-.006-24.99776 4.3106-18.15018 17.58909-31.05113 32.10032-31.18766 8.05667-.0758 14.24669 2.39602 20.75943 8.28972l5.38184 4.87029v-11.01292c0-8.88736.2598-11.11261 1.3461-11.52946.84953-.326 6.04705 3.40115 14.08965 10.10369 11.04406 9.20427 12.74311 10.97367 12.74311 13.2712 0 2.6068-.0832 2.65098-4.99165 2.65098h-4.99167l-.23514 48.84693c-.21489 44.63739-.36494 48.87191-1.74116 49.13685-.82831.15946-1.70096-.0395-1.93922-.44216z" transform="translate(-62.37980669 -191.48753)"/><path d="M493.78588 325.38127v-42.26895h-9.0901v63.6151l4.3178 10.44199c2.37478 5.74311 4.42006 10.45074 4.54504 10.46141.12499.0107.22726-19.00163.22726-42.24955zM446.61712 345.35421c-6.2399-7.10685-9.5041-17.14591-9.44985-29.06303.0205-4.4996.51026-10.1781 1.08838-12.6189 2.45855-10.3798 9.84703-20.69032 17.04751-23.78957 4.85306-2.08887 12.06192-1.98461 16.55717.23946l3.66765 1.81461-1.84047-2.33978c-4.67335-5.94119-15.16181-10.00995-22.33899-8.6659-5.57038 1.04317-8.75533 2.70971-13.73513 7.18697-12.84925 11.55259-16.49389 35.56078-8.00064 52.70245 3.52063 7.10558 8.86383 13.17438 13.97575 15.87362 5.14784 2.71822 6.18776 2.25813 3.02862-1.33993z" transform="translate(-62.37980669 -191.48753)"/><path d="M464.96996 347.09019c5.14963-2.60359 8.77241-5.8057 12.01364-10.61866l3.16713-4.70292V292.85172l-4.31939-4.3194c-7.04247-7.04247-14.65411-7.94014-22.02877-2.59797-17.2262 12.4786-16.39758 49.86018 1.3504 60.92043 3.35186 2.08883 6.02437 2.15292 9.81699.23541z" fill="#26272a" transform="translate(-62.37980669 -191.48753)"/><path d="M493.78588 275.01588c0-3.14829-.51589-3.98332-4.54505-7.35672l-4.54505-3.80533v14.71345h9.0901v-3.5514zM501.96696 278.14475c0-.23239-.81811-.86036-1.81802-1.39549-1.45105-.77658-1.81802-.6913-1.81802.42252 0 .78949.7895 1.3955 1.81802 1.3955.99991 0 1.81802-.19014 1.81802-.42253z" transform="translate(-62.37980669 -191.48753)"/></g><g stroke-width="2"><path d="M547.92771 378.40104c-.70039-1.66333-3.96511-9.29839-7.25492-16.96678l-5.98148-13.94255v-64.29264l-5.68131-.27062c-4.96315-.23642-5.68131-.49793-5.68131-2.06876 0-2.39778 26.22135-24.53126 28.17419-23.78188 1.08541.41651 1.36862 2.30531 1.36862 9.12783v8.60265l4.50848-3.03398c8.08966-5.44393 15.88934-5.01121 22.66729 1.25758 8.17626 7.56208 6.65126 21.04149-2.69745 23.84243-5.62981 1.68673-9.40603-.62573-13.56668-8.30794-3.09164-5.70837-3.33043-5.91801-7.04799-6.1877l-3.84794-.27913-.2351 49.35332c-.22092 46.37463-.33216 49.37199-1.84303 49.66285-1.10663.21305-2.00494-.6333-2.88137-2.71468z" transform="translate(-64.76046 -191.48639)"/><path d="M548.32646 325.38127v-42.26895h-9.0901v63.6151l4.31779 10.44199c2.37479 5.74311 4.42006 10.45074 4.54505 10.46141.12499.0107.22726-19.00163.22726-42.24955zM579.60649 290.31465c3.70455-4.4026 3.23987-8.37301-1.53929-13.15218-5.9458-5.94579-12.98605-6.37344-19.63697-1.19282-2.06477 1.60831-2.07889 1.68862-.297 1.68862 2.82696 0 7.07804 4.06568 8.78823 8.40495 2.89627 7.34875 8.49882 9.22646 12.68503 4.25143zM534.69131 277.17178c0-1.11382-.36697-1.1991-1.81802-.42252-.99991.53513-1.81802 1.1631-1.81802 1.39549 0 .23239.81811.42253 1.81802.42253 1.02853 0 1.81802-.60601 1.81802-1.3955zM548.32646 271.21055v-7.35672l-4.54505 3.80533c-4.02916 3.3734-4.54505 4.20843-4.54505 7.35672v3.5514h9.0901v-7.35673z" transform="translate(-64.76046 -191.48639)"/></g><g stroke-width="2"><path d="M617.01244 378.40104c-.70039-1.66333-3.96511-9.29839-7.25492-16.96678l-5.98148-13.94255v-64.29264l-5.68131-.27062c-4.96314-.23642-5.68131-.49793-5.68131-2.06876 0-2.39778 26.22135-24.53126 28.17419-23.78188 1.10903.42557 1.36863 2.50777 1.36863 10.97755v10.45238l10.22636.25702c8.36986.21036 10.22635.50455 10.22635 1.62054 0 1.1159-1.85559 1.41017-10.21854 1.62046l-10.21855.25695-.23506 49.27173c-.22088 46.29662-.33216 49.29042-1.84299 49.58128-1.10663.21305-2.00494-.6333-2.88137-2.71468z" transform="matrix(1.00001 0 0 1 -63.136223 -191.48639)"/><path d="M617.41119 325.38127v-42.26895h-9.0901v63.6151l4.3178 10.44199c2.37479 5.74311 4.42006 10.45074 4.54505 10.46141.12499.0107.22725-19.00163.22725-42.24955zM603.77604 277.17178c0-1.11382-.36696-1.1991-1.81801-.42252-.99992.53513-1.81802 1.1631-1.81802 1.39549 0 .23239.8181.42253 1.81802.42253 1.02852 0 1.81801-.60601 1.81801-1.3955zM617.41119 271.21055v-7.35672l-4.54505 3.80533c-4.02916 3.3734-4.54505 4.20843-4.54505 7.35672v3.5514h9.0901v-7.35673z" transform="matrix(1.00001 0 0 1 -63.136223 -191.48639)"/></g><g stroke-width="2"><path d="M221.59324 378.40104c-.70039-1.66333-3.96511-9.29839-7.25492-16.96678l-5.98148-13.94255v-64.29264l-5.68131-.27062c-4.96314-.23642-5.68131-.49793-5.68131-2.06876 0-2.40458 26.22173-24.53111 28.18056-23.77944 1.21179.465 1.34725 7.83866 1.14137 62.12674-.2203 58.08789-.32527 61.61676-1.84154 61.9087-1.10664.21307-2.00493-.63324-2.88137-2.71465z" transform="translate(-41.955422 -191.4864)"/><path d="M221.99199 325.38127v-42.26895h-9.0901v63.6151l4.3178 10.44199c2.37479 5.74311 4.42006 10.45074 4.54505 10.46141.12499.0107.22725-19.00163.22725-42.24955zM208.35684 277.17178c0-1.11382-.36696-1.1991-1.81801-.42252-.99992.53513-1.81802 1.1631-1.81802 1.39549 0 .23239.8181.42253 1.81802.42253 1.02852 0 1.81801-.60601 1.81801-1.3955zM221.99199 271.21055v-7.35672l-4.54505 3.80533c-4.02916 3.3734-4.54505 4.20843-4.54505 7.35672v3.5514h9.0901v-7.35673zM213.12646 252.47314c-3.20378-.61682-8.09995-5.83254-9.19368-9.79371-2.76597-10.01749 6.69623-19.4797 16.71373-16.71373 10.11205 2.79207 13.56346 15.72811 6.09676 22.851-3.96291 3.78045-7.72525 4.79072-13.61681 3.65644z" transform="translate(-41.955422 -191.4864)"/><path d="M221.86016 247.27462c4.96013-2.56499 6.14507-9.54646 2.37978-14.02125-4.51734-5.36856-12.84443-4.18902-15.51285 2.1974-1.79505 4.29616-.96123 7.91525 2.49335 10.82209 3.08291 2.59409 6.87082 2.95073 10.63972 1.00176z" transform="translate(-41.955422 -191.4864)"/></g></g></svg>